<svg xmlns="http://www.w3.org/2000/svg" viewBox="0 0 512 512" width="512" height="512"><path d="M0 0L512 0L512 512L0 512Z" fill="#f8f4e6"/><path d="M15.1 11.01L15.1 11.01A4.1 4.1 0 1 1 15.1 11.01M37.12 11.01L37.12 11.01A4.1 4.1 0 1 1 37.12 11.01M59.14 11.01L59.14 11.01A4.1 4.1 0 1 1 59.14 11.01M81.15 11.01L81.15 11.01A4.1 4.1 0 1 1 81.15 11.01M103.17 11.01L103.17 11.01A4.1 4.1 0 1 1 103.17 11.01M125.18 11.01L125.18 11.01A4.1 4.1 0 1 1 125.18 11.01M147.2 11.01L147.2 11.01A4.1 4.1 0 1 1 147.2 11.01M169.22 11.01L169.22 11.01A4.1 4.1 0 1 1 169.22 11.01M191.23 11.01L191.23 11.01A4.1 4.1 0 1 1 191.23 11.01M213.25 11.01L213.25 11.01A4.1 4.1 0 1 1 213.25 11.01M235.26 11.01L235.26 11.01A4.1 4.1 0 1 1 235.26 11.01M257.28 11.01L257.28 11.01A4.1 4.1 0 1 1 257.28 11.01M279.3 11.01L279.3 11.01A4.1 4.1 0 1 1 279.3 11.01M301.31 11.01L301.31 11.01A4.1 4.1 0 1 1 301.31 11.01M323.33 11.01L323.33 11.01A4.1 4.1 0 1 1 323.33 11.01M345.34 11.01L345.34 11.01A4.1 4.1 0 1 1 345.34 11.01M367.36 11.01L367.36 11.01A4.1 4.1 0 1 1 367.36 11.01M389.38 11.01L389.38 11.01A4.1 4.1 0 1 1 389.38 11.01M411.39 11.01L411.39 11.01A4.1 4.1 0 1 1 411.39 11.01M433.41 11.01L433.41 11.01A4.1 4.1 0 1 1 433.41 11.01M455.42 11.01L455.42 11.01A4.1 4.1 0 1 1 455.42 11.01M477.44 11.01L477.44 11.01A4.1 4.1 0 1 1 477.44 11.01M499.46 11.01L499.46 11.01A4.1 4.1 0 1 1 499.46 11.01M26.11 33.02L26.11 33.02A4.1 4.1 0 1 1 26.11 33.02M48.13 33.02L48.13 33.02A4.1 4.1 0 1 1 48.13 33.02M70.14 33.02L70.14 33.02A4.1 4.1 0 1 1 70.14 33.02M92.16 33.02L92.16 33.02A4.1 4.1 0 1 1 92.16 33.02M114.18 33.02L114.18 33.02A4.1 4.1 0 1 1 114.18 33.02M136.19 33.02L136.19 33.02A4.1 4.1 0 1 1 136.19 33.02M158.21 33.02L158.21 33.02A4.1 4.1 0 1 1 158.21 33.02M180.22 33.02L180.22 33.02A4.1 4.1 0 1 1 180.22 33.02M202.24 33.02L202.24 33.02A4.1 4.1 0 1 1 202.24 33.02M224.26 33.02L224.26 33.02A4.1 4.1 0 1 1 224.26 33.02M246.27 33.02L246.27 33.02A4.1 4.1 0 1 1 246.27 33.02M268.29 33.02L268.29 33.02A4.1 4.1 0 1 1 268.29 33.02M290.3 33.02L290.3 33.02A4.1 4.1 0 1 1 290.3 33.02M312.32 33.02L312.32 33.02A4.1 4.1 0 1 1 312.32 33.02M334.34 33.02L334.34 33.02A4.1 4.1 0 1 1 334.34 33.02M356.35 33.02L356.35 33.02A4.1 4.1 0 1 1 356.35 33.02M378.37 33.02L378.37 33.02A4.1 4.1 0 1 1 378.37 33.02M400.38 33.02L400.38 33.02A4.1 4.1 0 1 1 400.38 33.02M422.4 33.02L422.4 33.02A4.1 4.1 0 1 1 422.4 33.02M444.42 33.02L444.42 33.02A4.1 4.1 0 1 1 444.42 33.02M466.43 33.02L466.43 33.02A4.1 4.1 0 1 1 466.43 33.02M488.45 33.02L488.45 33.02A4.1 4.1 0 1 1 488.45 33.02M510.46 33.02L510.46 33.02A4.1 4.1 0 1 1 510.46 33.02M15.1 55.04L15.1 55.04A4.1 4.1 0 1 1 15.1 55.04M37.12 55.04L37.12 55.04A4.1 4.1 0 1 1 37.12 55.04M59.14 55.04L59.14 55.04A4.1 4.1 0 1 1 59.14 55.04M81.15 55.04L81.15 55.04A4.1 4.1 0 1 1 81.15 55.04M103.17 55.04L103.17 55.04A4.1 4.1 0 1 1 103.17 55.04M125.18 55.04L125.18 55.04A4.1 4.1 0 1 1 125.18 55.04M147.2 55.04L147.2 55.04A4.1 4.1 0 1 1 147.2 55.04M169.22 55.04L169.22 55.04A4.1 4.1 0 1 1 169.22 55.04M191.23 55.04L191.23 55.04A4.1 4.1 0 1 1 191.23 55.04M213.25 55.04L213.25 55.04A4.1 4.1 0 1 1 213.25 55.04M235.26 55.04L235.26 55.04A4.1 4.1 0 1 1 235.26 55.04M257.28 55.04L257.28 55.04A4.1 4.1 0 1 1 257.28 55.04M279.3 55.04L279.3 55.04A4.1 4.1 0 1 1 279.3 55.04M301.31 55.04L301.31 55.04A4.1 4.1 0 1 1 301.31 55.04M323.33 55.04L323.33 55.04A4.1 4.1 0 1 1 323.33 55.04M345.34 55.04L345.34 55.04A4.1 4.1 0 1 1 345.34 55.04M367.36 55.04L367.36 55.04A4.1 4.1 0 1 1 367.36 55.04M389.38 55.04L389.38 55.04A4.1 4.1 0 1 1 389.38 55.04M411.39 55.04L411.39 55.04A4.1 4.1 0 1 1 411.39 55.04M433.41 55.04L433.41 55.04A4.1 4.1 0 1 1 433.41 55.04M455.42 55.04L455.42 55.04A4.1 4.1 0 1 1 455.42 55.04M477.44 55.04L477.44 55.04A4.1 4.1 0 1 1 477.44 55.04M499.46 55.04L499.46 55.04A4.1 4.1 0 1 1 499.46 55.04M26.11 77.06L26.11 77.06A4.1 4.1 0 1 1 26.11 77.06M48.13 77.06L48.13 77.06A4.1 4.1 0 1 1 48.13 77.06M70.14 77.06L70.14 77.06A4.1 4.1 0 1 1 70.14 77.06M92.16 77.06L92.16 77.06A4.1 4.1 0 1 1 92.16 77.06M114.18 77.06L114.18 77.06A4.1 4.1 0 1 1 114.18 77.06M136.19 77.06L136.19 77.06A4.1 4.1 0 1 1 136.19 77.06M158.21 77.06L158.21 77.06A4.1 4.1 0 1 1 158.21 77.06M180.22 77.06L180.22 77.06A4.1 4.1 0 1 1 180.22 77.06M202.24 77.06L202.24 77.06A4.1 4.1 0 1 1 202.24 77.06M224.26 77.06L224.26 77.06A4.1 4.1 0 1 1 224.26 77.06M246.27 77.06L246.27 77.06A4.1 4.1 0 1 1 246.27 77.06M268.29 77.06L268.29 77.06A4.1 4.1 0 1 1 268.29 77.06M290.3 77.06L290.3 77.06A4.1 4.1 0 1 1 290.3 77.06M312.32 77.06L312.32 77.06A4.1 4.1 0 1 1 312.32 77.06M334.34 77.06L334.34 77.06A4.1 4.1 0 1 1 334.34 77.06M356.35 77.06L356.35 77.06A4.1 4.1 0 1 1 356.35 77.06M378.37 77.06L378.37 77.06A4.1 4.1 0 1 1 378.37 77.06M400.38 77.06L400.38 77.06A4.1 4.1 0 1 1 400.38 77.06M422.4 77.06L422.4 77.06A4.1 4.1 0 1 1 422.4 77.06M444.42 77.06L444.42 77.06A4.1 4.1 0 1 1 444.42 77.06M466.43 77.06L466.43 77.06A4.1 4.1 0 1 1 466.43 77.06M488.45 77.06L488.45 77.06A4.1 4.1 0 1 1 488.45 77.06M510.46 77.06L510.46 77.06A4.1 4.1 0 1 1 510.46 77.06M15.1 99.07L15.1 99.07A4.1 4.1 0 1 1 15.1 99.07M37.12 99.07L37.12 99.07A4.1 4.1 0 1 1 37.12 99.07M59.14 99.07L59.14 99.07A4.1 4.1 0 1 1 59.14 99.07M81.15 99.07L81.15 99.07A4.1 4.1 0 1 1 81.15 99.07M103.17 99.07L103.17 99.07A4.1 4.1 0 1 1 103.17 99.07M125.18 99.07L125.18 99.07A4.1 4.1 0 1 1 125.18 99.07M147.2 99.07L147.2 99.07A4.1 4.1 0 1 1 147.2 99.07M169.22 99.07L169.22 99.07A4.1 4.1 0 1 1 169.22 99.07M191.23 99.07L191.23 99.07A4.1 4.1 0 1 1 191.23 99.07M213.25 99.07L213.25 99.07A4.1 4.1 0 1 1 213.25 99.07M235.26 99.07L235.26 99.07A4.1 4.1 0 1 1 235.26 99.07M257.28 99.07L257.28 99.07A4.1 4.1 0 1 1 257.28 99.07M279.3 99.07L279.3 99.07A4.1 4.1 0 1 1 279.3 99.07M301.31 99.07L301.31 99.07A4.1 4.1 0 1 1 301.31 99.07M323.33 99.07L323.33 99.07A4.1 4.1 0 1 1 323.33 99.07M345.34 99.07L345.34 99.07A4.1 4.1 0 1 1 345.34 99.07M367.36 99.07L367.36 99.07A4.1 4.1 0 1 1 367.36 99.07M389.38 99.07L389.38 99.07A4.1 4.1 0 1 1 389.38 99.07M411.39 99.07L411.39 99.07A4.1 4.1 0 1 1 411.39 99.07M433.41 99.07L433.41 99.07A4.1 4.1 0 1 1 433.41 99.07M455.42 99.07L455.42 99.07A4.1 4.1 0 1 1 455.42 99.07M477.44 99.07L477.44 99.07A4.1 4.1 0 1 1 477.44 99.07M499.46 99.07L499.46 99.07A4.1 4.1 0 1 1 499.46 99.07M26.11 121.09L26.11 121.09A4.1 4.1 0 1 1 26.11 121.09M48.13 121.09L48.13 121.09A4.1 4.1 0 1 1 48.13 121.09M70.14 121.09L70.14 121.09A4.1 4.1 0 1 1 70.14 121.09M92.16 121.09L92.16 121.09A4.1 4.1 0 1 1 92.16 121.09M114.18 121.09L114.18 121.09A4.1 4.1 0 1 1 114.18 121.09M136.19 121.09L136.19 121.09A4.1 4.1 0 1 1 136.19 121.09M158.21 121.09L158.21 121.09A4.1 4.1 0 1 1 158.21 121.09M180.22 121.09L180.22 121.09A4.1 4.1 0 1 1 180.22 121.09M202.24 121.09L202.24 121.09A4.1 4.1 0 1 1 202.24 121.09M224.26 121.09L224.26 121.09A4.1 4.1 0 1 1 224.26 121.09M246.27 121.09L246.27 121.09A4.1 4.1 0 1 1 246.27 121.09M268.29 121.09L268.29 121.09A4.1 4.1 0 1 1 268.29 121.09M290.3 121.09L290.3 121.09A4.1 4.1 0 1 1 290.3 121.09M312.32 121.09L312.32 121.09A4.1 4.1 0 1 1 312.32 121.09M334.34 121.09L334.34 121.09A4.1 4.1 0 1 1 334.34 121.09M356.35 121.09L356.35 121.09A4.1 4.1 0 1 1 356.35 121.09M378.37 121.09L378.37 121.09A4.1 4.1 0 1 1 378.37 121.09M400.38 121.09L400.38 121.09A4.1 4.1 0 1 1 400.38 121.09M422.4 121.09L422.4 121.09A4.1 4.1 0 1 1 422.4 121.09M444.42 121.09L444.42 121.09A4.1 4.1 0 1 1 444.42 121.09M466.43 121.09L466.43 121.09A4.1 4.1 0 1 1 466.43 121.09M488.45 121.09L488.45 121.09A4.1 4.1 0 1 1 488.45 121.09M510.46 121.09L510.46 121.09A4.1 4.1 0 1 1 510.46 121.09M15.1 143.1L15.1 143.1A4.1 4.1 0 1 1 15.1 143.1M37.12 143.1L37.12 143.1A4.1 4.1 0 1 1 37.12 143.1M59.14 143.1L59.14 143.1A4.1 4.1 0 1 1 59.14 143.1M81.15 143.1L81.15 143.1A4.1 4.1 0 1 1 81.15 143.1M103.17 143.1L103.17 143.1A4.1 4.1 0 1 1 103.17 143.1M125.18 143.1L125.18 143.1A4.1 4.1 0 1 1 125.18 143.1M147.2 143.1L147.2 143.1A4.1 4.1 0 1 1 147.2 143.1M169.22 143.1L169.22 143.1A4.1 4.1 0 1 1 169.22 143.1M191.23 143.1L191.23 143.1A4.1 4.1 0 1 1 191.23 143.1M213.25 143.1L213.25 143.1A4.1 4.1 0 1 1 213.25 143.1M235.26 143.1L235.26 143.1A4.1 4.1 0 1 1 235.26 143.1M257.28 143.1L257.28 143.1A4.1 4.1 0 1 1 257.28 143.1M279.3 143.1L279.3 143.1A4.1 4.1 0 1 1 279.3 143.1M301.31 143.1L301.31 143.1A4.1 4.1 0 1 1 301.31 143.1M323.33 143.1L323.33 143.1A4.1 4.1 0 1 1 323.33 143.1M345.34 143.1L345.34 143.1A4.1 4.1 0 1 1 345.34 143.1M367.36 143.1L367.36 143.1A4.1 4.1 0 1 1 367.36 143.1M389.38 143.1L389.38 143.1A4.1 4.1 0 1 1 389.38 143.1M411.39 143.1L411.39 143.1A4.1 4.1 0 1 1 411.39 143.1M433.41 143.1L433.41 143.1A4.1 4.1 0 1 1 433.41 143.1M455.42 143.1L455.42 143.1A4.1 4.1 0 1 1 455.42 143.1M477.44 143.1L477.44 143.1A4.1 4.1 0 1 1 477.44 143.1M499.46 143.1L499.46 143.1A4.1 4.1 0 1 1 499.46 143.1M26.11 165.12L26.11 165.12A4.1 4.1 0 1 1 26.11 165.12M48.13 165.12L48.13 165.12A4.1 4.1 0 1 1 48.13 165.12M70.14 165.12L70.14 165.12A4.1 4.1 0 1 1 70.14 165.12M92.16 165.12L92.16 165.12A4.1 4.1 0 1 1 92.16 165.12M114.18 165.12L114.18 165.12A4.1 4.1 0 1 1 114.18 165.12M136.19 165.12L136.19 165.12A4.1 4.1 0 1 1 136.19 165.12M158.21 165.12L158.21 165.12A4.1 4.1 0 1 1 158.21 165.12M180.22 165.12L180.22 165.12A4.1 4.1 0 1 1 180.22 165.12M202.24 165.12L202.24 165.12A4.1 4.1 0 1 1 202.24 165.12M224.26 165.12L224.26 165.12A4.1 4.1 0 1 1 224.26 165.12M246.27 165.12L246.27 165.12A4.1 4.1 0 1 1 246.27 165.12M268.29 165.12L268.29 165.12A4.1 4.1 0 1 1 268.29 165.12M290.3 165.12L290.3 165.12A4.1 4.1 0 1 1 290.3 165.12M312.32 165.12L312.32 165.12A4.1 4.1 0 1 1 312.32 165.12M334.34 165.12L334.34 165.12A4.1 4.1 0 1 1 334.34 165.12M356.35 165.12L356.35 165.12A4.1 4.1 0 1 1 356.35 165.12M378.37 165.12L378.37 165.12A4.1 4.1 0 1 1 378.37 165.12M400.38 165.12L400.38 165.12A4.1 4.1 0 1 1 400.38 165.12M422.4 165.12L422.4 165.12A4.1 4.1 0 1 1 422.4 165.12M444.42 165.12L444.42 165.12A4.1 4.1 0 1 1 444.42 165.12M466.43 165.12L466.43 165.12A4.1 4.1 0 1 1 466.43 165.12M488.45 165.12L488.45 165.12A4.1 4.1 0 1 1 488.45 165.12M510.46 165.12L510.46 165.12A4.1 4.1 0 1 1 510.46 165.12M15.1 187.14L15.1 187.14A4.1 4.1 0 1 1 15.1 187.14M37.12 187.14L37.12 187.14A4.1 4.1 0 1 1 37.12 187.14M59.14 187.14L59.14 187.14A4.1 4.1 0 1 1 59.14 187.14M81.15 187.14L81.15 187.14A4.1 4.1 0 1 1 81.15 187.14M103.17 187.14L103.17 187.14A4.1 4.1 0 1 1 103.17 187.14M125.18 187.14L125.18 187.14A4.1 4.1 0 1 1 125.18 187.14M147.2 187.14L147.2 187.14A4.1 4.1 0 1 1 147.2 187.14M169.22 187.14L169.22 187.14A4.1 4.1 0 1 1 169.22 187.14M191.23 187.14L191.23 187.14A4.1 4.1 0 1 1 191.23 187.14M213.25 187.14L213.25 187.14A4.1 4.1 0 1 1 213.25 187.14M235.26 187.14L235.26 187.14A4.1 4.1 0 1 1 235.26 187.14M257.28 187.14L257.28 187.14A4.1 4.1 0 1 1 257.28 187.14M279.3 187.14L279.3 187.14A4.1 4.1 0 1 1 279.3 187.14M301.31 187.14L301.31 187.14A4.1 4.1 0 1 1 301.31 187.14M323.33 187.14L323.33 187.14A4.1 4.1 0 1 1 323.33 187.14M345.34 187.14L345.34 187.14A4.1 4.1 0 1 1 345.34 187.14M367.36 187.14L367.36 187.14A4.1 4.1 0 1 1 367.36 187.14M389.38 187.14L389.38 187.14A4.1 4.1 0 1 1 389.38 187.14M411.39 187.14L411.39 187.14A4.1 4.1 0 1 1 411.39 187.14M433.41 187.14L433.41 187.14A4.1 4.1 0 1 1 433.41 187.14M455.42 187.14L455.42 187.14A4.1 4.1 0 1 1 455.42 187.14M477.44 187.14L477.44 187.14A4.1 4.1 0 1 1 477.44 187.14M499.46 187.14L499.46 187.14A4.1 4.1 0 1 1 499.46 187.14M26.11 209.15L26.11 209.15A4.1 4.1 0 1 1 26.11 209.15M48.13 209.15L48.13 209.15A4.1 4.1 0 1 1 48.13 209.15M70.14 209.15L70.14 209.15A4.1 4.1 0 1 1 70.14 209.15M92.16 209.15L92.16 209.15A4.1 4.1 0 1 1 92.16 209.15M114.18 209.15L114.18 209.15A4.1 4.1 0 1 1 114.18 209.15M136.19 209.15L136.19 209.15A4.1 4.1 0 1 1 136.19 209.15M158.21 209.15L158.21 209.15A4.1 4.1 0 1 1 158.21 209.15M180.22 209.15L180.22 209.15A4.1 4.1 0 1 1 180.22 209.15M202.24 209.15L202.24 209.15A4.1 4.1 0 1 1 202.24 209.15M224.26 209.15L224.26 209.15A4.1 4.1 0 1 1 224.26 209.15M246.27 209.15L246.27 209.15A4.1 4.1 0 1 1 246.27 209.15M268.29 209.15L268.29 209.15A4.1 4.1 0 1 1 268.29 209.15M290.3 209.15L290.3 209.15A4.1 4.1 0 1 1 290.3 209.15M312.32 209.15L312.32 209.15A4.1 4.1 0 1 1 312.32 209.15M334.34 209.15L334.34 209.15A4.1 4.1 0 1 1 334.34 209.15M356.35 209.15L356.35 209.15A4.1 4.1 0 1 1 356.35 209.15M378.37 209.15L378.37 209.15A4.1 4.1 0 1 1 378.37 209.15M400.38 209.15L400.38 209.15A4.1 4.1 0 1 1 400.38 209.15M422.4 209.15L422.4 209.15A4.1 4.1 0 1 1 422.4 209.15M444.42 209.15L444.42 209.15A4.1 4.1 0 1 1 444.42 209.15M466.43 209.15L466.43 209.15A4.1 4.1 0 1 1 466.43 209.15M488.45 209.15L488.45 209.15A4.1 4.1 0 1 1 488.45 209.15M510.46 209.15L510.46 209.15A4.1 4.1 0 1 1 510.46 209.15M15.1 231.17L15.1 231.17A4.1 4.1 0 1 1 15.1 231.17M37.12 231.17L37.12 231.17A4.1 4.1 0 1 1 37.12 231.17M59.14 231.17L59.14 231.17A4.1 4.1 0 1 1 59.14 231.17M81.15 231.17L81.15 231.17A4.1 4.1 0 1 1 81.15 231.17M103.17 231.17L103.17 231.17A4.1 4.1 0 1 1 103.17 231.17M125.18 231.17L125.18 231.17A4.1 4.1 0 1 1 125.18 231.17M147.2 231.17L147.2 231.17A4.1 4.1 0 1 1 147.2 231.17M169.22 231.17L169.22 231.17A4.1 4.1 0 1 1 169.22 231.17M191.23 231.17L191.23 231.17A4.1 4.1 0 1 1 191.23 231.17M213.25 231.17L213.25 231.17A4.1 4.1 0 1 1 213.25 231.17M235.26 231.17L235.26 231.17A4.1 4.1 0 1 1 235.26 231.17M257.28 231.17L257.28 231.17A4.1 4.1 0 1 1 257.28 231.17M279.3 231.17L279.3 231.17A4.1 4.1 0 1 1 279.3 231.17M301.31 231.17L301.31 231.17A4.1 4.1 0 1 1 301.31 231.17M323.33 231.17L323.33 231.17A4.1 4.1 0 1 1 323.33 231.17M345.34 231.17L345.34 231.17A4.1 4.1 0 1 1 345.34 231.17M367.36 231.17L367.36 231.17A4.1 4.1 0 1 1 367.36 231.17M389.38 231.17L389.38 231.17A4.1 4.1 0 1 1 389.38 231.17M411.39 231.17L411.39 231.17A4.1 4.1 0 1 1 411.39 231.17M433.41 231.17L433.41 231.17A4.1 4.1 0 1 1 433.41 231.17M455.42 231.17L455.42 231.17A4.1 4.1 0 1 1 455.42 231.17M477.44 231.17L477.44 231.17A4.1 4.1 0 1 1 477.44 231.17M499.46 231.17L499.46 231.17A4.1 4.1 0 1 1 499.46 231.17M26.11 253.18L26.11 253.18A4.1 4.1 0 1 1 26.11 253.18M48.13 253.18L48.13 253.18A4.1 4.1 0 1 1 48.13 253.18M70.14 253.18L70.14 253.18A4.1 4.1 0 1 1 70.14 253.18M92.16 253.18L92.16 253.18A4.1 4.1 0 1 1 92.16 253.18M114.18 253.18L114.18 253.18A4.1 4.1 0 1 1 114.18 253.18M136.19 253.18L136.19 253.18A4.1 4.1 0 1 1 136.19 253.18M158.21 253.18L158.21 253.18A4.1 4.1 0 1 1 158.21 253.18M180.22 253.18L180.22 253.18A4.1 4.1 0 1 1 180.22 253.18M202.24 253.18L202.24 253.18A4.1 4.1 0 1 1 202.24 253.18M224.26 253.18L224.26 253.18A4.1 4.1 0 1 1 224.26 253.18M246.27 253.18L246.27 253.18A4.1 4.1 0 1 1 246.27 253.18M268.29 253.18L268.29 253.18A4.1 4.1 0 1 1 268.29 253.18M290.3 253.18L290.3 253.18A4.1 4.1 0 1 1 290.3 253.18M312.32 253.18L312.32 253.18A4.1 4.1 0 1 1 312.32 253.18M334.34 253.18L334.34 253.18A4.1 4.1 0 1 1 334.34 253.18M356.35 253.18L356.35 253.18A4.1 4.1 0 1 1 356.35 253.18M378.37 253.18L378.37 253.18A4.1 4.1 0 1 1 378.37 253.18M400.38 253.18L400.38 253.18A4.1 4.1 0 1 1 400.38 253.18M422.4 253.18L422.4 253.18A4.1 4.1 0 1 1 422.4 253.18M444.42 253.18L444.42 253.18A4.1 4.1 0 1 1 444.42 253.18M466.43 253.18L466.43 253.18A4.1 4.1 0 1 1 466.43 253.18M488.45 253.18L488.45 253.18A4.1 4.1 0 1 1 488.45 253.18M510.46 253.18L510.46 253.18A4.1 4.1 0 1 1 510.46 253.18M15.1 275.2L15.1 275.2A4.1 4.1 0 1 1 15.1 275.2M37.12 275.2L37.12 275.2A4.1 4.1 0 1 1 37.12 275.2M59.14 275.2L59.14 275.2A4.1 4.1 0 1 1 59.14 275.2M81.15 275.2L81.15 275.2A4.1 4.1 0 1 1 81.15 275.2M103.17 275.2L103.17 275.2A4.1 4.1 0 1 1 103.17 275.2M125.18 275.2L125.18 275.2A4.1 4.1 0 1 1 125.18 275.2M147.2 275.2L147.2 275.2A4.1 4.1 0 1 1 147.2 275.2M169.22 275.2L169.22 275.2A4.1 4.1 0 1 1 169.22 275.2M191.23 275.2L191.23 275.2A4.1 4.1 0 1 1 191.23 275.2M213.25 275.2L213.25 275.2A4.1 4.1 0 1 1 213.25 275.2M235.26 275.2L235.26 275.2A4.1 4.1 0 1 1 235.26 275.2M257.28 275.2L257.28 275.2A4.1 4.1 0 1 1 257.28 275.2M279.3 275.2L279.3 275.2A4.1 4.1 0 1 1 279.3 275.2M301.31 275.2L301.31 275.2A4.1 4.1 0 1 1 301.31 275.2M323.33 275.2L323.33 275.2A4.1 4.1 0 1 1 323.33 275.2M345.34 275.2L345.34 275.2A4.1 4.1 0 1 1 345.34 275.2M367.36 275.2L367.36 275.2A4.1 4.1 0 1 1 367.36 275.2M389.38 275.2L389.38 275.2A4.1 4.1 0 1 1 389.38 275.2M411.39 275.2L411.39 275.2A4.1 4.1 0 1 1 411.39 275.2M433.41 275.2L433.41 275.2A4.1 4.1 0 1 1 433.41 275.2M455.42 275.2L455.42 275.2A4.1 4.1 0 1 1 455.42 275.2M477.44 275.2L477.44 275.2A4.1 4.1 0 1 1 477.44 275.2M499.46 275.2L499.46 275.2A4.1 4.1 0 1 1 499.46 275.2M26.11 297.22L26.11 297.22A4.1 4.1 0 1 1 26.11 297.22M48.13 297.22L48.13 297.22A4.1 4.1 0 1 1 48.13 297.22M70.14 297.22L70.14 297.22A4.1 4.1 0 1 1 70.14 297.22M92.16 297.22L92.16 297.22A4.1 4.1 0 1 1 92.16 297.22M114.18 297.22L114.18 297.22A4.1 4.1 0 1 1 114.18 297.22M136.19 297.22L136.19 297.22A4.1 4.1 0 1 1 136.19 297.22M158.21 297.22L158.21 297.22A4.1 4.1 0 1 1 158.21 297.22M180.22 297.22L180.22 297.22A4.1 4.1 0 1 1 180.22 297.22M202.24 297.22L202.24 297.22A4.1 4.1 0 1 1 202.24 297.22M224.26 297.22L224.26 297.22A4.1 4.1 0 1 1 224.26 297.22M246.27 297.22L246.27 297.22A4.1 4.1 0 1 1 246.27 297.22M268.29 297.22L268.29 297.22A4.1 4.1 0 1 1 268.29 297.22M290.3 297.22L290.3 297.22A4.1 4.1 0 1 1 290.3 297.22M312.32 297.22L312.32 297.22A4.1 4.1 0 1 1 312.32 297.22M334.34 297.22L334.34 297.22A4.1 4.1 0 1 1 334.34 297.22M356.35 297.22L356.35 297.22A4.1 4.1 0 1 1 356.35 297.22M378.37 297.22L378.37 297.22A4.1 4.1 0 1 1 378.37 297.22M400.38 297.22L400.38 297.22A4.1 4.1 0 1 1 400.38 297.22M422.4 297.22L422.4 297.22A4.1 4.1 0 1 1 422.4 297.22M444.42 297.22L444.42 297.22A4.1 4.1 0 1 1 444.42 297.22M466.43 297.22L466.43 297.22A4.1 4.1 0 1 1 466.43 297.22M488.45 297.22L488.45 297.22A4.1 4.1 0 1 1 488.45 297.22M510.46 297.22L510.46 297.22A4.1 4.1 0 1 1 510.46 297.22M15.1 319.23L15.1 319.23A4.1 4.1 0 1 1 15.1 319.23M37.12 319.23L37.12 319.23A4.1 4.1 0 1 1 37.12 319.23M59.14 319.23L59.14 319.23A4.1 4.1 0 1 1 59.14 319.23M81.15 319.23L81.15 319.23A4.1 4.1 0 1 1 81.15 319.23M103.17 319.23L103.17 319.23A4.1 4.1 0 1 1 103.17 319.23M125.18 319.23L125.18 319.23A4.1 4.1 0 1 1 125.18 319.23M147.2 319.23L147.2 319.23A4.1 4.1 0 1 1 147.2 319.23M169.22 319.23L169.22 319.23A4.1 4.1 0 1 1 169.22 319.23M191.23 319.23L191.23 319.23A4.1 4.1 0 1 1 191.23 319.23M213.25 319.23L213.25 319.23A4.1 4.1 0 1 1 213.25 319.23M235.26 319.23L235.26 319.23A4.1 4.1 0 1 1 235.26 319.23M257.28 319.23L257.28 319.23A4.1 4.1 0 1 1 257.28 319.23M279.3 319.23L279.3 319.23A4.1 4.1 0 1 1 279.3 319.23M301.31 319.23L301.31 319.23A4.1 4.1 0 1 1 301.31 319.23M323.33 319.23L323.33 319.23A4.1 4.1 0 1 1 323.33 319.23M345.34 319.23L345.34 319.23A4.1 4.1 0 1 1 345.34 319.23M367.36 319.23L367.36 319.23A4.1 4.1 0 1 1 367.36 319.23M389.38 319.23L389.38 319.23A4.1 4.1 0 1 1 389.38 319.23M411.39 319.23L411.39 319.23A4.1 4.1 0 1 1 411.39 319.23M433.41 319.23L433.41 319.23A4.1 4.1 0 1 1 433.41 319.23M455.42 319.23L455.42 319.23A4.1 4.1 0 1 1 455.42 319.23M477.44 319.23L477.44 319.23A4.1 4.1 0 1 1 477.44 319.23M499.46 319.23L499.46 319.23A4.1 4.1 0 1 1 499.46 319.23M26.11 341.25L26.11 341.25A4.1 4.1 0 1 1 26.11 341.25M48.13 341.25L48.13 341.25A4.1 4.1 0 1 1 48.13 341.25M70.14 341.25L70.14 341.25A4.1 4.1 0 1 1 70.14 341.25M92.16 341.25L92.16 341.25A4.1 4.1 0 1 1 92.16 341.25M114.18 341.25L114.18 341.25A4.1 4.1 0 1 1 114.18 341.25M136.19 341.25L136.19 341.25A4.1 4.1 0 1 1 136.19 341.25M158.21 341.25L158.21 341.25A4.1 4.1 0 1 1 158.21 341.25M180.22 341.25L180.22 341.25A4.1 4.1 0 1 1 180.22 341.25M202.24 341.25L202.24 341.25A4.1 4.1 0 1 1 202.24 341.25M224.26 341.25L224.26 341.25A4.1 4.1 0 1 1 224.26 341.25M246.27 341.25L246.27 341.25A4.1 4.1 0 1 1 246.27 341.25M268.29 341.25L268.29 341.25A4.1 4.1 0 1 1 268.29 341.25M290.3 341.25L290.3 341.25A4.1 4.1 0 1 1 290.3 341.25M312.32 341.25L312.32 341.25A4.1 4.1 0 1 1 312.32 341.25M334.34 341.25L334.34 341.25A4.1 4.1 0 1 1 334.34 341.25M356.35 341.25L356.35 341.25A4.1 4.1 0 1 1 356.35 341.25M378.37 341.25L378.37 341.25A4.1 4.1 0 1 1 378.37 341.25M400.38 341.25L400.38 341.25A4.1 4.1 0 1 1 400.38 341.25M422.4 341.25L422.4 341.25A4.1 4.1 0 1 1 422.4 341.25M444.42 341.25L444.42 341.25A4.1 4.1 0 1 1 444.42 341.25M466.43 341.25L466.43 341.25A4.1 4.1 0 1 1 466.43 341.25M488.45 341.25L488.45 341.25A4.1 4.1 0 1 1 488.45 341.25M510.46 341.25L510.46 341.25A4.1 4.1 0 1 1 510.46 341.25M15.1 363.26L15.1 363.26A4.1 4.1 0 1 1 15.1 363.26M37.12 363.26L37.12 363.26A4.1 4.1 0 1 1 37.12 363.26M59.14 363.26L59.14 363.26A4.1 4.1 0 1 1 59.14 363.26M81.15 363.26L81.15 363.26A4.1 4.1 0 1 1 81.15 363.26M103.17 363.26L103.17 363.26A4.1 4.1 0 1 1 103.17 363.26M125.18 363.26L125.18 363.26A4.1 4.1 0 1 1 125.18 363.26M147.2 363.26L147.2 363.26A4.1 4.1 0 1 1 147.2 363.26M169.22 363.26L169.22 363.26A4.1 4.1 0 1 1 169.22 363.26M191.23 363.26L191.23 363.26A4.1 4.1 0 1 1 191.23 363.26M213.25 363.26L213.25 363.26A4.1 4.1 0 1 1 213.25 363.26M235.26 363.26L235.26 363.26A4.1 4.1 0 1 1 235.26 363.26M257.28 363.26L257.28 363.26A4.1 4.1 0 1 1 257.28 363.26M279.3 363.26L279.3 363.26A4.1 4.1 0 1 1 279.3 363.26M301.31 363.26L301.31 363.26A4.1 4.1 0 1 1 301.31 363.26M323.33 363.26L323.33 363.26A4.1 4.1 0 1 1 323.33 363.26M345.34 363.26L345.34 363.26A4.1 4.1 0 1 1 345.34 363.26M367.36 363.26L367.36 363.26A4.1 4.1 0 1 1 367.36 363.26M389.38 363.26L389.38 363.26A4.1 4.1 0 1 1 389.38 363.26M411.39 363.26L411.39 363.26A4.1 4.1 0 1 1 411.39 363.26M433.41 363.26L433.41 363.26A4.1 4.1 0 1 1 433.41 363.26M455.42 363.26L455.42 363.26A4.1 4.1 0 1 1 455.42 363.26M477.44 363.26L477.44 363.26A4.1 4.1 0 1 1 477.44 363.26M499.46 363.26L499.46 363.26A4.1 4.1 0 1 1 499.46 363.26M26.11 385.28L26.11 385.28A4.1 4.1 0 1 1 26.11 385.28M48.13 385.28L48.13 385.28A4.1 4.1 0 1 1 48.13 385.28M70.14 385.28L70.14 385.28A4.1 4.1 0 1 1 70.14 385.28M92.16 385.28L92.16 385.28A4.1 4.1 0 1 1 92.16 385.28M114.18 385.28L114.18 385.28A4.1 4.1 0 1 1 114.18 385.28M136.19 385.28L136.19 385.28A4.1 4.1 0 1 1 136.19 385.28M158.21 385.28L158.21 385.28A4.1 4.1 0 1 1 158.21 385.28M180.22 385.28L180.22 385.28A4.1 4.1 0 1 1 180.22 385.28M202.24 385.28L202.24 385.28A4.1 4.1 0 1 1 202.24 385.28M224.26 385.28L224.26 385.28A4.1 4.1 0 1 1 224.26 385.28M246.27 385.28L246.27 385.28A4.1 4.1 0 1 1 246.27 385.28M268.29 385.28L268.29 385.28A4.1 4.1 0 1 1 268.29 385.28M290.3 385.28L290.3 385.28A4.1 4.1 0 1 1 290.3 385.28M312.32 385.28L312.32 385.28A4.1 4.1 0 1 1 312.32 385.28M334.34 385.28L334.34 385.28A4.1 4.1 0 1 1 334.34 385.28M356.35 385.28L356.35 385.28A4.1 4.1 0 1 1 356.35 385.28M378.37 385.28L378.37 385.28A4.1 4.1 0 1 1 378.37 385.28M400.38 385.28L400.38 385.28A4.1 4.1 0 1 1 400.38 385.28M422.4 385.28L422.4 385.28A4.1 4.1 0 1 1 422.4 385.28M444.42 385.28L444.42 385.28A4.1 4.1 0 1 1 444.42 385.28M466.43 385.28L466.43 385.28A4.1 4.1 0 1 1 466.43 385.28M488.45 385.28L488.45 385.28A4.1 4.1 0 1 1 488.45 385.28M510.46 385.28L510.46 385.28A4.1 4.1 0 1 1 510.46 385.28M15.1 407.3L15.1 407.3A4.1 4.1 0 1 1 15.1 407.3M37.12 407.3L37.12 407.3A4.1 4.1 0 1 1 37.12 407.3M59.14 407.3L59.14 407.3A4.1 4.1 0 1 1 59.14 407.3M81.15 407.3L81.15 407.3A4.1 4.1 0 1 1 81.15 407.3M103.17 407.3L103.17 407.3A4.1 4.1 0 1 1 103.17 407.3M125.18 407.3L125.18 407.3A4.1 4.1 0 1 1 125.18 407.3M147.2 407.3L147.2 407.3A4.1 4.1 0 1 1 147.2 407.3M169.22 407.3L169.22 407.3A4.1 4.1 0 1 1 169.22 407.3M191.23 407.3L191.23 407.3A4.1 4.1 0 1 1 191.23 407.3M213.25 407.3L213.25 407.3A4.1 4.1 0 1 1 213.25 407.3M235.26 407.3L235.26 407.3A4.1 4.1 0 1 1 235.26 407.3M257.28 407.3L257.28 407.3A4.1 4.1 0 1 1 257.28 407.3M279.3 407.3L279.3 407.3A4.1 4.1 0 1 1 279.3 407.3M301.31 407.3L301.31 407.3A4.1 4.1 0 1 1 301.31 407.3M323.33 407.3L323.33 407.3A4.1 4.1 0 1 1 323.33 407.3M345.34 407.3L345.34 407.3A4.1 4.1 0 1 1 345.34 407.3M367.36 407.3L367.36 407.3A4.1 4.1 0 1 1 367.36 407.3M389.38 407.3L389.38 407.3A4.1 4.1 0 1 1 389.38 407.3M411.39 407.3L411.39 407.3A4.1 4.1 0 1 1 411.39 407.3M433.41 407.3L433.41 407.3A4.1 4.1 0 1 1 433.41 407.3M455.42 407.3L455.42 407.3A4.1 4.1 0 1 1 455.42 407.3M477.44 407.3L477.44 407.3A4.1 4.1 0 1 1 477.44 407.3M499.46 407.3L499.46 407.3A4.1 4.1 0 1 1 499.46 407.3M26.11 429.31L26.11 429.31A4.1 4.1 0 1 1 26.11 429.31M48.13 429.31L48.13 429.31A4.1 4.1 0 1 1 48.13 429.31M70.14 429.31L70.14 429.31A4.1 4.1 0 1 1 70.14 429.31M92.16 429.31L92.16 429.31A4.1 4.1 0 1 1 92.16 429.31M114.18 429.31L114.18 429.31A4.1 4.1 0 1 1 114.18 429.31M136.19 429.31L136.19 429.31A4.1 4.1 0 1 1 136.19 429.31M158.21 429.31L158.21 429.31A4.1 4.1 0 1 1 158.21 429.31M180.22 429.31L180.22 429.31A4.1 4.1 0 1 1 180.22 429.31M202.24 429.31L202.24 429.31A4.1 4.1 0 1 1 202.24 429.31M224.26 429.31L224.26 429.31A4.1 4.1 0 1 1 224.26 429.31M246.27 429.31L246.27 429.31A4.1 4.1 0 1 1 246.27 429.31M268.29 429.31L268.29 429.31A4.1 4.1 0 1 1 268.29 429.31M290.3 429.31L290.3 429.31A4.1 4.1 0 1 1 290.3 429.31M312.32 429.31L312.32 429.31A4.1 4.1 0 1 1 312.32 429.31M334.34 429.31L334.34 429.31A4.1 4.1 0 1 1 334.34 429.31M356.35 429.31L356.35 429.31A4.1 4.1 0 1 1 356.35 429.31M378.37 429.31L378.37 429.31A4.1 4.1 0 1 1 378.37 429.31M400.38 429.31L400.38 429.31A4.1 4.1 0 1 1 400.38 429.31M422.4 429.31L422.4 429.31A4.1 4.1 0 1 1 422.4 429.31M444.42 429.31L444.42 429.31A4.1 4.1 0 1 1 444.42 429.31M466.43 429.31L466.43 429.31A4.1 4.1 0 1 1 466.43 429.31M488.45 429.31L488.45 429.31A4.1 4.1 0 1 1 488.45 429.31M510.46 429.31L510.46 429.31A4.1 4.1 0 1 1 510.46 429.31M15.1 451.33L15.1 451.33A4.1 4.1 0 1 1 15.1 451.33M37.12 451.33L37.12 451.33A4.1 4.1 0 1 1 37.12 451.33M59.14 451.33L59.14 451.33A4.1 4.1 0 1 1 59.14 451.33M81.15 451.33L81.15 451.33A4.1 4.1 0 1 1 81.15 451.33M103.17 451.33L103.17 451.33A4.1 4.1 0 1 1 103.17 451.33M125.18 451.33L125.18 451.33A4.1 4.1 0 1 1 125.18 451.33M147.2 451.33L147.2 451.33A4.1 4.1 0 1 1 147.2 451.33M169.22 451.33L169.22 451.33A4.1 4.1 0 1 1 169.22 451.33M191.23 451.33L191.23 451.33A4.1 4.1 0 1 1 191.23 451.33M213.25 451.33L213.25 451.33A4.1 4.1 0 1 1 213.25 451.33M235.26 451.33L235.26 451.33A4.1 4.1 0 1 1 235.26 451.33M257.28 451.33L257.28 451.33A4.1 4.1 0 1 1 257.28 451.33M279.3 451.33L279.3 451.33A4.1 4.1 0 1 1 279.3 451.33M301.31 451.33L301.31 451.33A4.1 4.1 0 1 1 301.31 451.33M323.33 451.33L323.33 451.33A4.1 4.1 0 1 1 323.33 451.33M345.34 451.33L345.34 451.33A4.1 4.1 0 1 1 345.34 451.33M367.36 451.33L367.36 451.33A4.1 4.1 0 1 1 367.36 451.33M389.38 451.33L389.38 451.33A4.1 4.1 0 1 1 389.38 451.33M411.39 451.33L411.39 451.33A4.1 4.1 0 1 1 411.39 451.33M433.41 451.33L433.41 451.33A4.1 4.1 0 1 1 433.41 451.33M455.42 451.33L455.42 451.33A4.1 4.1 0 1 1 455.42 451.33M477.44 451.33L477.44 451.33A4.1 4.1 0 1 1 477.44 451.33M499.46 451.33L499.46 451.33A4.1 4.1 0 1 1 499.46 451.33M26.11 473.34L26.11 473.34A4.1 4.1 0 1 1 26.11 473.34M48.13 473.34L48.13 473.34A4.1 4.1 0 1 1 48.13 473.34M70.14 473.34L70.14 473.34A4.1 4.1 0 1 1 70.14 473.34M92.16 473.34L92.16 473.34A4.1 4.1 0 1 1 92.16 473.34M114.18 473.34L114.18 473.34A4.1 4.1 0 1 1 114.18 473.34M136.19 473.34L136.19 473.34A4.1 4.1 0 1 1 136.19 473.34M158.21 473.34L158.21 473.34A4.1 4.1 0 1 1 158.21 473.34M180.22 473.34L180.22 473.34A4.1 4.1 0 1 1 180.22 473.34M202.24 473.34L202.24 473.34A4.1 4.1 0 1 1 202.24 473.34M224.26 473.34L224.26 473.34A4.1 4.1 0 1 1 224.26 473.34M246.27 473.34L246.27 473.34A4.1 4.1 0 1 1 246.27 473.34M268.29 473.34L268.29 473.34A4.1 4.1 0 1 1 268.29 473.34M290.3 473.34L290.3 473.34A4.1 4.1 0 1 1 290.3 473.34M312.32 473.34L312.32 473.34A4.1 4.1 0 1 1 312.32 473.34M334.34 473.34L334.34 473.34A4.1 4.1 0 1 1 334.34 473.34M356.35 473.34L356.35 473.34A4.1 4.1 0 1 1 356.35 473.34M378.37 473.34L378.37 473.34A4.1 4.1 0 1 1 378.37 473.34M400.38 473.34L400.38 473.34A4.1 4.1 0 1 1 400.38 473.34M422.4 473.34L422.4 473.34A4.1 4.1 0 1 1 422.4 473.34M444.42 473.34L444.42 473.34A4.1 4.1 0 1 1 444.42 473.34M466.43 473.34L466.43 473.34A4.1 4.1 0 1 1 466.43 473.34M488.45 473.34L488.45 473.34A4.1 4.1 0 1 1 488.45 473.34M510.46 473.34L510.46 473.34A4.1 4.1 0 1 1 510.46 473.34M15.1 495.36L15.1 495.36A4.1 4.1 0 1 1 15.1 495.36M37.12 495.36L37.12 495.36A4.1 4.1 0 1 1 37.12 495.36M59.14 495.36L59.14 495.36A4.1 4.1 0 1 1 59.14 495.36M81.15 495.36L81.15 495.36A4.1 4.1 0 1 1 81.15 495.36M103.17 495.36L103.17 495.36A4.1 4.1 0 1 1 103.17 495.36M125.18 495.36L125.18 495.36A4.1 4.1 0 1 1 125.18 495.36M147.2 495.36L147.2 495.36A4.1 4.1 0 1 1 147.2 495.36M169.22 495.36L169.22 495.36A4.1 4.1 0 1 1 169.22 495.36M191.23 495.36L191.23 495.36A4.1 4.1 0 1 1 191.23 495.36M213.25 495.36L213.25 495.36A4.1 4.1 0 1 1 213.25 495.36M235.26 495.36L235.26 495.36A4.1 4.1 0 1 1 235.26 495.36M257.28 495.36L257.28 495.36A4.1 4.1 0 1 1 257.28 495.36M279.3 495.36L279.3 495.36A4.1 4.1 0 1 1 279.3 495.36M301.31 495.36L301.31 495.36A4.1 4.1 0 1 1 301.31 495.36M323.33 495.36L323.33 495.36A4.1 4.1 0 1 1 323.33 495.36M345.34 495.36L345.34 495.36A4.1 4.1 0 1 1 345.34 495.36M367.36 495.36L367.36 495.36A4.1 4.1 0 1 1 367.36 495.36M389.38 495.36L389.38 495.36A4.1 4.1 0 1 1 389.38 495.36M411.39 495.36L411.39 495.36A4.1 4.1 0 1 1 411.39 495.36M433.41 495.36L433.41 495.36A4.1 4.1 0 1 1 433.41 495.36M455.42 495.36L455.42 495.36A4.1 4.1 0 1 1 455.42 495.36M477.44 495.36L477.44 495.36A4.1 4.1 0 1 1 477.44 495.36M499.46 495.36L499.46 495.36A4.1 4.1 0 1 1 499.46 495.36" fill="#c9bfa4"/><path d="M276.45 26.62L306.59 79.96L362.84 55.67L366.85 116.81L428.07 119.33L405.16 176.15L459.22 204.99L413.93 246.25L450.12 295.68L391.41 313.2L402.57 373.44L342.08 363.75L325.99 422.87L275.69 387.89L235.55 434.18L205.41 380.84L149.16 405.13L145.15 343.99L83.93 341.47L106.84 284.65L52.78 255.81L98.07 214.55L61.88 165.12L120.59 147.6L109.43 87.36L169.92 97.05L186.01 37.93L236.31 72.91Z" fill="#ffd23f"/><path d="M276.45 26.62L306.59 79.96L362.84 55.67L366.85 116.81L428.07 119.33L405.16 176.15L459.22 204.99L413.93 246.25L450.12 295.68L391.41 313.2L402.57 373.44L342.08 363.75L325.99 422.87L275.69 387.89L235.55 434.18L205.41 380.84L149.16 405.13L145.15 343.99L83.93 341.47L106.84 284.65L52.78 255.81L98.07 214.55L61.88 165.12L120.59 147.6L109.43 87.36L169.92 97.05L186.01 37.93L236.31 72.91ZZ" fill="none" stroke="#151412" stroke-width="4.1" stroke-linecap="round" stroke-linejoin="round"/><path d="M276.45 26.62L306.59 79.96L362.84 55.67L366.85 116.81L428.07 119.33L405.16 176.15L459.22 204.99L413.93 246.25L450.12 295.68L391.41 313.2L402.57 373.44L342.08 363.75L325.99 422.87L275.69 387.89L235.55 434.18L205.41 380.84L149.16 405.13L145.15 343.99L83.93 341.47L106.84 284.65L52.78 255.81L98.07 214.55L61.88 165.12L120.59 147.6L109.43 87.36L169.92 97.05L186.01 37.93L236.31 72.91ZZ" fill="none" stroke="#f8f4e6" stroke-width="4.5" stroke-linecap="round" stroke-linejoin="round"/><path d="M208.84 300.29A161.13 40 0 0 1 181.15 223.38" fill="none" stroke="#f8f4e6" stroke-width="4.5" stroke-linecap="round" stroke-linejoin="round"/><path d="M208.84 300.29A161.13 40 0 0 1 181.15 223.38" fill="none" stroke="#f8f4e6" stroke-width="3.2" stroke-linecap="round" stroke-linejoin="round"/><path d="M228.11 296.47A132.93 33 0 0 1 194.3 246.73" fill="none" stroke="#f8f4e6" stroke-width="3.2" stroke-linecap="round" stroke-linejoin="round"/><path d="M239.94 182.23L272.06 182.23L268.04 202.3L243.96 202.3Z" fill="#f8f4e6"/><path d="M310.19 250.47A108.76 27 0 1 1 310.19 250.47" fill="#f8f4e6"/><path d="M239.94 182.23L223.89 162.16L247.97 170.19Z" fill="#f8f4e6"/><path d="M272.06 182.23L288.11 162.16L264.03 170.19Z" fill="#f8f4e6"/><path d="M233.92 230.4L278.08 230.4A28.2 7 0 0 1 292.13 244.45L292.13 246.46A28.2 7 0 0 1 278.08 260.51L233.92 260.51A28.2 7 0 0 1 219.87 246.46L219.87 244.45A28.2 7 0 0 1 233.92 230.4Z" fill="#f8f4e6"/><path d="M229.91 238.43L251.99 238.43L247.97 252.48L231.92 250.47Z" fill="#f8f4e6"/><path d="M282.09 238.43L260.01 238.43L264.03 252.48L280.08 250.47Z" fill="#f8f4e6"/><path d="M282.09 238.43L260.01 238.43L264.03 252.48L280.08 250.47Z" fill="#f8f4e6"/><path d="M321.35 246.78L305.45 246.78A29.97 7.44 0 0 0 290.52 261.71L290.52 271.34A29.97 7.44 0 0 0 305.45 286.28L321.35 286.28A29.97 7.44 0 0 0 336.28 271.34L336.28 261.71A29.97 7.44 0 0 0 321.35 246.78Z" fill="#f8f4e6"/><path d="M284.26 255.69A14.5 3.6 0 1 0 284.26 255.69" fill="#f8f4e6"/><path d="M284.26 266.53A14.5 3.6 0 1 0 284.26 266.53" fill="#f8f4e6"/><path d="M284.26 277.36A14.5 3.6 0 1 0 284.26 277.36" fill="#f8f4e6"/><path d="M290.04 283.87A20.3 5.04 0 1 0 290.04 283.87" fill="#f8f4e6"/><path d="M290.04 283.87A20.3 5.04 0 1 0 290.04 283.87" fill="none" stroke="#f8f4e6" stroke-width="2.4" stroke-linecap="round" stroke-linejoin="round"/><path d="M336.28 266.53A48.34 12 0 1 1 336.28 266.53" fill="none" stroke="#f8f4e6" stroke-width="2.4" stroke-linecap="round" stroke-linejoin="round"/><path d="M336.28 266.53A48.34 12 0 1 1 336.28 266.53" fill="#f8f4e6"/><path d="M332.27 179.22L334.77 187.76L343.31 190.26L334.77 192.76L332.27 201.3L329.77 192.76L321.23 190.26L329.77 187.76Z" fill="#f8f4e6"/><path d="M304.17 162.96L305.8 168.55L311.39 170.19L305.8 171.82L304.17 177.41L302.53 171.82L296.94 170.19L302.53 168.55Z" fill="#f8f4e6"/><path d="M304.17 162.96L305.8 168.55L311.39 170.19L305.8 171.82L304.17 177.41L302.53 171.82L296.94 170.19L302.53 168.55Z" fill="none" stroke="#ffd23f" stroke-width="4.5" stroke-linecap="round" stroke-linejoin="round"/><path d="M211.85 290.75A128.45 40 0 0 1 187.13 222.09" fill="none" stroke="#ffd23f" stroke-width="4.5" stroke-linecap="round" stroke-linejoin="round"/><path d="M211.85 290.75A128.45 40 0 0 1 187.13 222.09" fill="none" stroke="#ffd23f" stroke-width="3.2" stroke-linecap="round" stroke-linejoin="round"/><path d="M229.05 287.34A105.97 33 0 0 1 198.87 242.93" fill="none" stroke="#ffd23f" stroke-width="3.2" stroke-linecap="round" stroke-linejoin="round"/><path d="M239.62 185.34L268.29 185.34L264.7 203.26L243.2 203.26Z" fill="#dcd5c2"/><path d="M302.34 246.27A86.7 27 0 1 1 302.34 246.27" fill="#151412"/><path d="M239.62 185.34L225.28 167.42L246.78 174.59Z" fill="#ffd23f"/><path d="M268.29 185.34L282.62 167.42L261.12 174.59Z" fill="#ffd23f"/><path d="M234.24 228.35L273.66 228.35A22.48 7 0 0 1 286.21 240.9L286.21 242.69A22.48 7 0 0 1 273.66 255.23L234.24 255.23A22.48 7 0 0 1 221.7 242.69L221.7 240.9A22.48 7 0 0 1 234.24 228.35Z" fill="#f8f4e6"/><path d="M230.66 235.52L250.37 235.52L246.78 248.06L232.45 246.27Z" fill="#e0453a"/><path d="M277.25 235.52L257.54 235.52L261.12 248.06L275.46 246.27Z" fill="#e0453a"/><path d="M277.25 235.52L257.54 235.52L261.12 248.06L275.46 246.27Z" fill="#ffd23f"/><path d="M312.3 242.97L298.11 242.97A23.89 7.44 0 0 0 284.77 256.31L284.77 264.91A23.89 7.44 0 0 0 298.11 278.24L312.3 278.24A23.89 7.44 0 0 0 325.63 264.91L325.63 256.31A23.89 7.44 0 0 0 312.3 242.97Z" fill="#ffd23f"/><path d="M279.18 250.93A11.56 3.6 0 1 0 279.18 250.93" fill="#ffd23f"/><path d="M279.18 260.61A11.56 3.6 0 1 0 279.18 260.61" fill="#ffd23f"/><path d="M279.18 270.28A11.56 3.6 0 1 0 279.18 270.28" fill="#ffd23f"/><path d="M284.34 276.09A16.18 5.04 0 1 0 284.34 276.09" fill="#ffd23f"/><path d="M284.34 276.09A16.18 5.04 0 1 0 284.34 276.09" fill="none" stroke="#dcd5c2" stroke-width="2.4" stroke-linecap="round" stroke-linejoin="round"/><path d="M325.63 260.61A38.54 12 0 1 1 325.63 260.61" fill="none" stroke="#dcd5c2" stroke-width="2.4" stroke-linecap="round" stroke-linejoin="round"/><path d="M325.63 260.61A38.54 12 0 1 1 325.63 260.61" fill="#e0453a"/><path d="M322.05 182.66L324.28 190.28L331.9 192.51L324.28 194.74L322.05 202.37L319.82 194.74L312.19 192.51L319.82 190.28Z" fill="#e0453a"/><path d="M296.96 168.14L298.42 173.13L303.41 174.59L298.42 176.05L296.96 181.04L295.5 176.05L290.51 174.59L295.5 173.13Z" fill="#e0453a"/><path d="M294.66 315.39L294.66 315.39A4.86 4.86 0 1 1 294.66 315.39M311.04 315.39L311.04 315.39A4.86 4.86 0 1 1 311.04 315.39M327.42 315.39L327.42 315.39A4.86 4.86 0 1 1 327.42 315.39M343.81 315.39L343.81 315.39A4.86 4.86 0 1 1 343.81 315.39M360.19 315.39L360.19 315.39A4.86 4.86 0 1 1 360.19 315.39M376.58 315.39L376.58 315.39A4.86 4.86 0 1 1 376.58 315.39M392.96 315.39L392.96 315.39A4.86 4.86 0 1 1 392.96 315.39M409.34 315.39L409.34 315.39A4.86 4.86 0 1 1 409.34 315.39M425.73 315.39L425.73 315.39A4.86 4.86 0 1 1 425.73 315.39M442.11 315.39L442.11 315.39A4.86 4.86 0 1 1 442.11 315.39M458.5 315.39L458.5 315.39A4.86 4.86 0 1 1 458.5 315.39M474.88 315.39L474.88 315.39A4.86 4.86 0 1 1 474.88 315.39M302.85 331.78L302.85 331.78A4.86 4.86 0 1 1 302.85 331.78M319.23 331.78L319.23 331.78A4.86 4.86 0 1 1 319.23 331.78M335.62 331.78L335.62 331.78A4.86 4.86 0 1 1 335.62 331.78M352 331.78L352 331.78A4.86 4.86 0 1 1 352 331.78M368.38 331.78L368.38 331.78A4.86 4.86 0 1 1 368.38 331.78M384.77 331.78L384.77 331.78A4.86 4.86 0 1 1 384.77 331.78M401.15 331.78L401.15 331.78A4.86 4.86 0 1 1 401.15 331.78M417.54 331.78L417.54 331.78A4.86 4.86 0 1 1 417.54 331.78M433.92 331.78L433.92 331.78A4.86 4.86 0 1 1 433.92 331.78M450.3 331.78L450.3 331.78A4.86 4.86 0 1 1 450.3 331.78M466.69 331.78L466.69 331.78A4.86 4.86 0 1 1 466.69 331.78M483.07 331.78L483.07 331.78A4.86 4.86 0 1 1 483.07 331.78M294.66 348.16L294.66 348.16A4.86 4.86 0 1 1 294.66 348.16M311.04 348.16L311.04 348.16A4.86 4.86 0 1 1 311.04 348.16M327.42 348.16L327.42 348.16A4.86 4.86 0 1 1 327.42 348.16M343.81 348.16L343.81 348.16A4.86 4.86 0 1 1 343.81 348.16M360.19 348.16L360.19 348.16A4.86 4.86 0 1 1 360.19 348.16M376.58 348.16L376.58 348.16A4.86 4.86 0 1 1 376.58 348.16M392.96 348.16L392.96 348.16A4.86 4.86 0 1 1 392.96 348.16M409.34 348.16L409.34 348.16A4.86 4.86 0 1 1 409.34 348.16M425.73 348.16L425.73 348.16A4.86 4.86 0 1 1 425.73 348.16M442.11 348.16L442.11 348.16A4.86 4.86 0 1 1 442.11 348.16M458.5 348.16L458.5 348.16A4.86 4.86 0 1 1 458.5 348.16M474.88 348.16L474.88 348.16A4.86 4.86 0 1 1 474.88 348.16M302.85 364.54L302.85 364.54A4.86 4.86 0 1 1 302.85 364.54M319.23 364.54L319.23 364.54A4.86 4.86 0 1 1 319.23 364.54M335.62 364.54L335.62 364.54A4.86 4.86 0 1 1 335.62 364.54M352 364.54L352 364.54A4.86 4.86 0 1 1 352 364.54M368.38 364.54L368.38 364.54A4.86 4.86 0 1 1 368.38 364.54M384.77 364.54L384.77 364.54A4.86 4.86 0 1 1 384.77 364.54M401.15 364.54L401.15 364.54A4.86 4.86 0 1 1 401.15 364.54M417.54 364.54L417.54 364.54A4.86 4.86 0 1 1 417.54 364.54M433.92 364.54L433.92 364.54A4.86 4.86 0 1 1 433.92 364.54M450.3 364.54L450.3 364.54A4.86 4.86 0 1 1 450.3 364.54M466.69 364.54L466.69 364.54A4.86 4.86 0 1 1 466.69 364.54M483.07 364.54L483.07 364.54A4.86 4.86 0 1 1 483.07 364.54M294.66 380.93L294.66 380.93A4.86 4.86 0 1 1 294.66 380.93M311.04 380.93L311.04 380.93A4.86 4.86 0 1 1 311.04 380.93M327.42 380.93L327.42 380.93A4.86 4.86 0 1 1 327.42 380.93M343.81 380.93L343.81 380.93A4.86 4.86 0 1 1 343.81 380.93M360.19 380.93L360.19 380.93A4.86 4.86 0 1 1 360.19 380.93M376.58 380.93L376.58 380.93A4.86 4.86 0 1 1 376.58 380.93M392.96 380.93L392.96 380.93A4.86 4.86 0 1 1 392.96 380.93M409.34 380.93L409.34 380.93A4.86 4.86 0 1 1 409.34 380.93M425.73 380.93L425.73 380.93A4.86 4.86 0 1 1 425.73 380.93M442.11 380.93L442.11 380.93A4.86 4.86 0 1 1 442.11 380.93M458.5 380.93L458.5 380.93A4.86 4.86 0 1 1 458.5 380.93M474.88 380.93L474.88 380.93A4.86 4.86 0 1 1 474.88 380.93M302.85 397.31L302.85 397.31A4.86 4.86 0 1 1 302.85 397.31M319.23 397.31L319.23 397.31A4.86 4.86 0 1 1 319.23 397.31M335.62 397.31L335.62 397.31A4.86 4.86 0 1 1 335.62 397.31M352 397.31L352 397.31A4.86 4.86 0 1 1 352 397.31M368.38 397.31L368.38 397.31A4.86 4.86 0 1 1 368.38 397.31M384.77 397.31L384.77 397.31A4.86 4.86 0 1 1 384.77 397.31M401.15 397.31L401.15 397.31A4.86 4.86 0 1 1 401.15 397.31M417.54 397.31L417.54 397.31A4.86 4.86 0 1 1 417.54 397.31M433.92 397.31L433.92 397.31A4.86 4.86 0 1 1 433.92 397.31M450.3 397.31L450.3 397.31A4.86 4.86 0 1 1 450.3 397.31M466.69 397.31L466.69 397.31A4.86 4.86 0 1 1 466.69 397.31M483.07 397.31L483.07 397.31A4.86 4.86 0 1 1 483.07 397.31M294.66 413.7L294.66 413.7A4.86 4.86 0 1 1 294.66 413.7M311.04 413.7L311.04 413.7A4.86 4.86 0 1 1 311.04 413.7M327.42 413.7L327.42 413.7A4.86 4.86 0 1 1 327.42 413.7M343.81 413.7L343.81 413.7A4.86 4.86 0 1 1 343.81 413.7M360.19 413.7L360.19 413.7A4.86 4.86 0 1 1 360.19 413.7M376.58 413.7L376.58 413.7A4.86 4.86 0 1 1 376.58 413.7M392.96 413.7L392.96 413.7A4.86 4.86 0 1 1 392.96 413.7M409.34 413.7L409.34 413.7A4.86 4.86 0 1 1 409.34 413.7M425.73 413.7L425.73 413.7A4.86 4.86 0 1 1 425.73 413.7M442.11 413.7L442.11 413.7A4.86 4.86 0 1 1 442.11 413.7M458.5 413.7L458.5 413.7A4.86 4.86 0 1 1 458.5 413.7M474.88 413.7L474.88 413.7A4.86 4.86 0 1 1 474.88 413.7M302.85 430.08L302.85 430.08A4.86 4.86 0 1 1 302.85 430.08M319.23 430.08L319.23 430.08A4.86 4.86 0 1 1 319.23 430.08M335.62 430.08L335.62 430.08A4.86 4.86 0 1 1 335.62 430.08M352 430.08L352 430.08A4.86 4.86 0 1 1 352 430.08M368.38 430.08L368.38 430.08A4.86 4.86 0 1 1 368.38 430.08M384.77 430.08L384.77 430.08A4.86 4.86 0 1 1 384.77 430.08M401.15 430.08L401.15 430.08A4.86 4.86 0 1 1 401.15 430.08M417.54 430.08L417.54 430.08A4.86 4.86 0 1 1 417.54 430.08M433.92 430.08L433.92 430.08A4.86 4.86 0 1 1 433.92 430.08M450.3 430.08L450.3 430.08A4.86 4.86 0 1 1 450.3 430.08M466.69 430.08L466.69 430.08A4.86 4.86 0 1 1 466.69 430.08M483.07 430.08L483.07 430.08A4.86 4.86 0 1 1 483.07 430.08M294.66 446.46L294.66 446.46A4.86 4.86 0 1 1 294.66 446.46M311.04 446.46L311.04 446.46A4.86 4.86 0 1 1 311.04 446.46M327.42 446.46L327.42 446.46A4.86 4.86 0 1 1 327.42 446.46M343.81 446.46L343.81 446.46A4.86 4.86 0 1 1 343.81 446.46M360.19 446.46L360.19 446.46A4.86 4.86 0 1 1 360.19 446.46M376.58 446.46L376.58 446.46A4.86 4.86 0 1 1 376.58 446.46M392.96 446.46L392.96 446.46A4.86 4.86 0 1 1 392.96 446.46M409.34 446.46L409.34 446.46A4.86 4.86 0 1 1 409.34 446.46M425.73 446.46L425.73 446.46A4.86 4.86 0 1 1 425.73 446.46M442.11 446.46L442.11 446.46A4.86 4.86 0 1 1 442.11 446.46M458.5 446.46L458.5 446.46A4.86 4.86 0 1 1 458.5 446.46M474.88 446.46L474.88 446.46A4.86 4.86 0 1 1 474.88 446.46M302.85 462.85L302.85 462.85A4.86 4.86 0 1 1 302.85 462.85M319.23 462.85L319.23 462.85A4.86 4.86 0 1 1 319.23 462.85M335.62 462.85L335.62 462.85A4.86 4.86 0 1 1 335.62 462.85M352 462.85L352 462.85A4.86 4.86 0 1 1 352 462.85M368.38 462.85L368.38 462.85A4.86 4.86 0 1 1 368.38 462.85M384.77 462.85L384.77 462.85A4.86 4.86 0 1 1 384.77 462.85M401.15 462.85L401.15 462.85A4.86 4.86 0 1 1 401.15 462.85M417.54 462.85L417.54 462.85A4.86 4.86 0 1 1 417.54 462.85M433.92 462.85L433.92 462.85A4.86 4.86 0 1 1 433.92 462.85M450.3 462.85L450.3 462.85A4.86 4.86 0 1 1 450.3 462.85M466.69 462.85L466.69 462.85A4.86 4.86 0 1 1 466.69 462.85M483.07 462.85L483.07 462.85A4.86 4.86 0 1 1 483.07 462.85M294.66 479.23L294.66 479.23A4.86 4.86 0 1 1 294.66 479.23M311.04 479.23L311.04 479.23A4.86 4.86 0 1 1 311.04 479.23M327.42 479.23L327.42 479.23A4.86 4.86 0 1 1 327.42 479.23M343.81 479.23L343.81 479.23A4.86 4.86 0 1 1 343.81 479.23M360.19 479.23L360.19 479.23A4.86 4.86 0 1 1 360.19 479.23M376.58 479.23L376.58 479.23A4.86 4.86 0 1 1 376.58 479.23M392.96 479.23L392.96 479.23A4.86 4.86 0 1 1 392.96 479.23M409.34 479.23L409.34 479.23A4.86 4.86 0 1 1 409.34 479.23M425.73 479.23L425.73 479.23A4.86 4.86 0 1 1 425.73 479.23M442.11 479.23L442.11 479.23A4.86 4.86 0 1 1 442.11 479.23M458.5 479.23L458.5 479.23A4.86 4.86 0 1 1 458.5 479.23M474.88 479.23L474.88 479.23A4.86 4.86 0 1 1 474.88 479.23" fill="#e0453a"/><path d="M56.32 17.92L455.68 17.92A38.4 38.4 0 0 1 494.08 56.32L494.08 455.68A38.4 38.4 0 0 1 455.68 494.08L56.32 494.08A38.4 38.4 0 0 1 17.92 455.68L17.92 56.32A38.4 38.4 0 0 1 56.32 17.92Z" fill="none" stroke="#151412" stroke-width="9.22" stroke-linecap="round" stroke-linejoin="round"/><path d="M56.32 28.16L455.68 28.16A28.16 28.16 0 0 1 483.84 56.32L483.84 455.68A28.16 28.16 0 0 1 455.68 483.84L56.32 483.84A28.16 28.16 0 0 1 28.16 455.68L28.16 56.32A28.16 28.16 0 0 1 56.32 28.16Z" fill="none" stroke="#e0453a" stroke-width="2.56" stroke-linecap="round" stroke-linejoin="round"/><path d="M17.92 12.8L17.92 12.8A5.12 5.12 0 1 1 17.92 12.8M43.52 12.8L43.52 12.8A5.12 5.12 0 1 1 43.52 12.8M30.72 38.4L30.72 38.4A5.12 5.12 0 1 1 30.72 38.4M56.32 38.4L56.32 38.4A5.12 5.12 0 1 1 56.32 38.4M17.92 64L17.92 64A5.12 5.12 0 1 1 17.92 64M43.52 64L43.52 64A5.12 5.12 0 1 1 43.52 64M30.72 89.6L30.72 89.6A5.12 5.12 0 1 1 30.72 89.6M56.32 89.6L56.32 89.6A5.12 5.12 0 1 1 56.32 89.6M17.92 115.2L17.92 115.2A5.12 5.12 0 1 1 17.92 115.2M43.52 115.2L43.52 115.2A5.12 5.12 0 1 1 43.52 115.2M30.72 140.8L30.72 140.8A5.12 5.12 0 1 1 30.72 140.8M56.32 140.8L56.32 140.8A5.12 5.12 0 1 1 56.32 140.8M17.92 166.4L17.92 166.4A5.12 5.12 0 1 1 17.92 166.4M43.52 166.4L43.52 166.4A5.12 5.12 0 1 1 43.52 166.4M30.72 192L30.72 192A5.12 5.12 0 1 1 30.72 192M56.32 192L56.32 192A5.12 5.12 0 1 1 56.32 192M17.92 217.6L17.92 217.6A5.12 5.12 0 1 1 17.92 217.6M43.52 217.6L43.52 217.6A5.12 5.12 0 1 1 43.52 217.6M30.72 243.2L30.72 243.2A5.12 5.12 0 1 1 30.72 243.2M56.32 243.2L56.32 243.2A5.12 5.12 0 1 1 56.32 243.2M17.92 268.8L17.92 268.8A5.12 5.12 0 1 1 17.92 268.8M43.52 268.8L43.52 268.8A5.12 5.12 0 1 1 43.52 268.8M30.72 294.4L30.72 294.4A5.12 5.12 0 1 1 30.72 294.4M56.32 294.4L56.32 294.4A5.12 5.12 0 1 1 56.32 294.4M17.92 320L17.92 320A5.12 5.12 0 1 1 17.92 320M43.52 320L43.52 320A5.12 5.12 0 1 1 43.52 320M30.72 345.6L30.72 345.6A5.12 5.12 0 1 1 30.72 345.6M56.32 345.6L56.32 345.6A5.12 5.12 0 1 1 56.32 345.6M17.92 371.2L17.92 371.2A5.12 5.12 0 1 1 17.92 371.2M43.52 371.2L43.52 371.2A5.12 5.12 0 1 1 43.52 371.2M30.72 396.8L30.72 396.8A5.12 5.12 0 1 1 30.72 396.8M56.32 396.8L56.32 396.8A5.12 5.12 0 1 1 56.32 396.8M17.92 422.4L17.92 422.4A5.12 5.12 0 1 1 17.92 422.4M43.52 422.4L43.52 422.4A5.12 5.12 0 1 1 43.52 422.4M30.72 448L30.72 448A5.12 5.12 0 1 1 30.72 448M56.32 448L56.32 448A5.12 5.12 0 1 1 56.32 448M17.92 473.6L17.92 473.6A5.12 5.12 0 1 1 17.92 473.6M43.52 473.6L43.52 473.6A5.12 5.12 0 1 1 43.52 473.6M30.72 499.2L30.72 499.2A5.12 5.12 0 1 1 30.72 499.2M56.32 499.2L56.32 499.2A5.12 5.12 0 1 1 56.32 499.2" fill="#151412"/></svg>