<svg xmlns="http://www.w3.org/2000/svg" viewBox="0 0 512 512" width="512" height="512"><defs><radialGradient id="gr1" gradientUnits="userSpaceOnUse" cx="256" cy="230.4" r="378.88" fx="256" fy="230.4" fr="112.64"><stop offset="0" stop-color="rgba(5,7,13,0)"/><stop offset="1" stop-color="rgba(3,5,9,0.55)"/></radialGradient></defs><path d="M0 0L512 0L512 512L0 512Z" fill="#05070d"/><path d="M-25.6 -25.6L215.04 512L25.6 512Z" fill="#eaf8ff"/><path d="M537.6 -25.6L296.96 512L486.4 512Z" fill="#eaf8ff"/><path d="M537.6 -25.6L296.96 512L486.4 512Z" fill="none" stroke="#49e0d0" stroke-width="1.6" stroke-linecap="round" stroke-linejoin="round"/><path d="M192 317.44L0 512" fill="none" stroke="#49e0d0" stroke-width="1.6" stroke-linecap="round" stroke-linejoin="round"/><path d="M213.33 317.44L85.33 512" fill="none" stroke="#49e0d0" stroke-width="1.6" stroke-linecap="round" stroke-linejoin="round"/><path d="M234.67 317.44L170.67 512" fill="none" stroke="#49e0d0" stroke-width="1.6" stroke-linecap="round" stroke-linejoin="round"/><path d="M256 317.44L256 512" fill="none" stroke="#49e0d0" stroke-width="1.6" stroke-linecap="round" stroke-linejoin="round"/><path d="M277.33 317.44L341.33 512" fill="none" stroke="#49e0d0" stroke-width="1.6" stroke-linecap="round" stroke-linejoin="round"/><path d="M298.67 317.44L426.67 512" fill="none" stroke="#49e0d0" stroke-width="1.6" stroke-linecap="round" stroke-linejoin="round"/><path d="M320 317.44L512 512" fill="none" stroke="#49e0d0" stroke-width="1.6" stroke-linecap="round" stroke-linejoin="round"/><path d="M0 335.87L512 335.87" fill="none" stroke="#49e0d0" stroke-width="1.6" stroke-linecap="round" stroke-linejoin="round"/><path d="M0 377.32L512 377.32" fill="none" stroke="#49e0d0" stroke-width="1.6" stroke-linecap="round" stroke-linejoin="round"/><path d="M0 436.74L512 436.74" fill="none" stroke="#49e0d0" stroke-width="1.6" stroke-linecap="round" stroke-linejoin="round"/><path d="M0 512L512 512" fill="none" stroke="#49e0d0" stroke-width="1.6" stroke-linecap="round" stroke-linejoin="round"/><path d="M352.85 264.64L438.44 281.48L439.7 276.73L357.06 248.81Z" fill="#ff5f9e"/><path d="M330.8 300.47L398.93 354.74L400.69 352.68L336.67 293.63Z" fill="#ff5f9e"/><path d="M289.62 327.47L329.82 404.88L334.32 402.91L304.62 320.89Z" fill="#ff5f9e"/><path d="M247.85 332.57L247.91 419.67L250.61 419.77L256.86 332.9Z" fill="#ff5f9e"/><path d="M201.07 317.2L165.61 396.9L169.96 399.19L215.56 324.83Z" fill="#ff5f9e"/><path d="M171.04 287.73L102.98 342.08L104.58 344.25L176.4 294.98Z" fill="#ff5f9e"/><path d="M153.88 241.57L69.47 263.54L70.39 268.37L156.96 257.66Z" fill="#ff5f9e"/><path d="M158.2 199.72L73.27 180.39L72.58 183L155.88 208.43Z" fill="#ff5f9e"/><path d="M183.6 157.53L113.79 105.22L110.59 108.95L172.93 169.96Z" fill="#ff5f9e"/><path d="M219.01 134.81L181.17 56.36L178.69 57.45L210.76 138.43Z" fill="#ff5f9e"/><path d="M267.83 128.36L265.2 41.17L260.29 40.99L251.46 127.77Z" fill="#ff5f9e"/><path d="M307.67 141.88L345.41 63.38L343.02 62.12L299.7 137.68Z" fill="#ff5f9e"/><path d="M343.16 176.03L409.68 119.61L406.76 115.66L333.4 162.86Z" fill="#ff5f9e"/><path d="M357.43 215.61L442.33 196.17L441.82 193.52L355.73 206.76Z" fill="#ff5f9e"/><path d="M226.26 217.32L256.78 203.69A17.46 4 0 0 1 267.82 207.92L289.96 257.51A17.46 4 0 0 1 285.74 268.55L255.22 282.17A17.46 4 0 0 1 244.18 277.95L222.04 228.36A17.46 4 0 0 1 226.26 217.32Z" fill="#49e0d0"/><path d="M226.26 217.32L256.78 203.69A17.46 4 0 0 1 267.82 207.92L289.96 257.51A17.46 4 0 0 1 285.74 268.55L255.22 282.17A17.46 4 0 0 1 244.18 277.95L222.04 228.36A17.46 4 0 0 1 226.26 217.32Z" fill="none" stroke="#49e0d0" stroke-width="3.2" stroke-linecap="round" stroke-linejoin="round"/><path d="M255.22 203.69L285.74 217.32A17.46 4 0 0 1 289.96 228.36L267.82 277.95A17.46 4 0 0 1 256.78 282.17L226.26 268.55A17.46 4 0 0 1 222.04 257.51L244.18 207.92A17.46 4 0 0 1 255.22 203.69Z" fill="#49e0d0"/><path d="M255.22 203.69L285.74 217.32A17.46 4 0 0 1 289.96 228.36L267.82 277.95A17.46 4 0 0 1 256.78 282.17L226.26 268.55A17.46 4 0 0 1 222.04 257.51L244.18 207.92A17.46 4 0 0 1 255.22 203.69Z" fill="none" stroke="#49e0d0" stroke-width="3.2" stroke-linecap="round" stroke-linejoin="round"/><path d="M239.29 207.42L272.71 207.42A17.46 4 0 0 1 281.07 215.78L281.07 270.09A17.46 4 0 0 1 272.71 278.45L239.29 278.45A17.46 4 0 0 1 230.93 270.09L230.93 215.78A17.46 4 0 0 1 239.29 207.42Z" fill="#0a1120"/><path d="M239.29 207.42L272.71 207.42A17.46 4 0 0 1 281.07 215.78L281.07 270.09A17.46 4 0 0 1 272.71 278.45L239.29 278.45A17.46 4 0 0 1 230.93 270.09L230.93 215.78A17.46 4 0 0 1 239.29 207.42Z" fill="none" stroke="#49e0d0" stroke-width="3.2" stroke-linecap="round" stroke-linejoin="round"/><path d="M239.29 207.42L272.71 207.42A17.46 4 0 0 1 281.07 215.78L281.07 270.09A17.46 4 0 0 1 272.71 278.45L239.29 278.45A17.46 4 0 0 1 230.93 270.09L230.93 215.78A17.46 4 0 0 1 239.29 207.42Z" fill="#49e0d0"/><path d="M256 222.04L258.84 231.74L268.53 234.58L258.84 237.41L256 247.11L253.16 237.41L243.47 234.58L253.16 231.74Z" fill="#49e0d0"/><path d="M291.58 154.79A174.55 40 0 1 1 191.62 283.66" fill="none" stroke="#49e0d0" stroke-width="4.5" stroke-linecap="round" stroke-linejoin="round"/><path d="M291.58 154.79L310.31 151.02L335.38 180.26Z" fill="#49e0d0"/><path d="M228.99 218.52L256.71 206.14A14.4 4 0 0 1 266.73 209.98L286.85 255.02A14.4 4 0 0 1 283.01 265.05L255.29 277.43A14.4 4 0 0 1 245.27 273.59L225.15 228.55A14.4 4 0 0 1 228.99 218.52Z" fill="#ff5f9e"/><path d="M228.99 218.52L256.71 206.14A14.4 4 0 0 1 266.73 209.98L286.85 255.02A14.4 4 0 0 1 283.01 265.05L255.29 277.43A14.4 4 0 0 1 245.27 273.59L225.15 228.55A14.4 4 0 0 1 228.99 218.52Z" fill="none" stroke="#ff5f9e" stroke-width="3.2" stroke-linecap="round" stroke-linejoin="round"/><path d="M255.29 206.14L283.01 218.52A14.4 4 0 0 1 286.85 228.55L266.73 273.59A14.4 4 0 0 1 256.71 277.43L228.99 265.05A14.4 4 0 0 1 225.15 255.02L245.27 209.98A14.4 4 0 0 1 255.29 206.14Z" fill="#ff5f9e"/><path d="M255.29 206.14L283.01 218.52A14.4 4 0 0 1 286.85 228.55L266.73 273.59A14.4 4 0 0 1 256.71 277.43L228.99 265.05A14.4 4 0 0 1 225.15 255.02L245.27 209.98A14.4 4 0 0 1 255.29 206.14Z" fill="none" stroke="#ff5f9e" stroke-width="3.2" stroke-linecap="round" stroke-linejoin="round"/><path d="M240.82 209.53L271.18 209.53A14.4 4 0 0 1 278.77 217.12L278.77 266.45A14.4 4 0 0 1 271.18 274.04L240.82 274.04A14.4 4 0 0 1 233.23 266.45L233.23 217.12A14.4 4 0 0 1 240.82 209.53Z" fill="#0a1120"/><path d="M240.82 209.53L271.18 209.53A14.4 4 0 0 1 278.77 217.12L278.77 266.45A14.4 4 0 0 1 271.18 274.04L240.82 274.04A14.4 4 0 0 1 233.23 266.45L233.23 217.12A14.4 4 0 0 1 240.82 209.53Z" fill="none" stroke="#ff5f9e" stroke-width="3.2" stroke-linecap="round" stroke-linejoin="round"/><path d="M240.82 209.53L271.18 209.53A14.4 4 0 0 1 278.77 217.12L278.77 266.45A14.4 4 0 0 1 271.18 274.04L240.82 274.04A14.4 4 0 0 1 233.23 266.45L233.23 217.12A14.4 4 0 0 1 240.82 209.53Z" fill="#ff5f9e"/><path d="M256 222.81L258.58 231.62L267.38 234.19L258.58 236.77L256 245.58L253.42 236.77L244.62 234.19L253.42 231.62Z" fill="#ff5f9e"/><path d="M288.32 161.72A144.02 40 0 1 1 197.52 278.78" fill="none" stroke="#ff5f9e" stroke-width="4.5" stroke-linecap="round" stroke-linejoin="round"/><path d="M288.32 161.72L305.33 158.3L328.1 184.86Z" fill="#ff5f9e"/><path d="M231.22 219.5L256.65 208.14A12.12 4 0 0 1 265.85 211.66L284.3 252.99A12.12 4 0 0 1 280.78 262.19L255.35 273.55A12.12 4 0 0 1 246.15 270.03L227.7 228.7A12.12 4 0 0 1 231.22 219.5Z" fill="#ff5f9e"/><path d="M231.22 219.5L256.65 208.14A12.12 4 0 0 1 265.85 211.66L284.3 252.99A12.12 4 0 0 1 280.78 262.19L255.35 273.55A12.12 4 0 0 1 246.15 270.03L227.7 228.7A12.12 4 0 0 1 231.22 219.5Z" fill="none" stroke="#49e0d0" stroke-width="3.2" stroke-linecap="round" stroke-linejoin="round"/><path d="M255.35 208.14L280.78 219.5A12.12 4 0 0 1 284.3 228.7L265.85 270.03A12.12 4 0 0 1 256.65 273.55L231.22 262.19A12.12 4 0 0 1 227.7 252.99L246.15 211.66A12.12 4 0 0 1 255.35 208.14Z" fill="#eaf8ff"/><path d="M255.35 208.14L280.78 219.5A12.12 4 0 0 1 284.3 228.7L265.85 270.03A12.12 4 0 0 1 256.65 273.55L231.22 262.19A12.12 4 0 0 1 227.7 252.99L246.15 211.66A12.12 4 0 0 1 255.35 208.14Z" fill="none" stroke="#49e0d0" stroke-width="3.2" stroke-linecap="round" stroke-linejoin="round"/><path d="M242.07 211.25L269.93 211.25A12.12 4 0 0 1 276.89 218.21L276.89 263.48A12.12 4 0 0 1 269.93 270.44L242.07 270.44A12.12 4 0 0 1 235.11 263.48L235.11 218.21A12.12 4 0 0 1 242.07 211.25Z" fill="#0a1120"/><path d="M242.07 211.25L269.93 211.25A12.12 4 0 0 1 276.89 218.21L276.89 263.48A12.12 4 0 0 1 269.93 270.44L242.07 270.44A12.12 4 0 0 1 235.11 263.48L235.11 218.21A12.12 4 0 0 1 242.07 211.25Z" fill="none" stroke="#49e0d0" stroke-width="3.2" stroke-linecap="round" stroke-linejoin="round"/><path d="M242.07 211.25L269.93 211.25A12.12 4 0 0 1 276.89 218.21L276.89 263.48A12.12 4 0 0 1 269.93 270.44L242.07 270.44A12.12 4 0 0 1 235.11 263.48L235.11 218.21A12.12 4 0 0 1 242.07 211.25Z" fill="#eaf8ff"/><path d="M256 223.44L258.36 231.52L266.44 233.88L258.36 236.24L256 244.33L253.64 236.24L245.56 233.88L253.64 231.52Z" fill="#eaf8ff"/><path d="M285.65 167.4A121.22 40 0 1 1 202.35 274.79" fill="none" stroke="#ff5f9e" stroke-width="4.5" stroke-linecap="round" stroke-linejoin="round"/><path d="M285.65 167.4L301.26 164.25L322.15 188.62Z" fill="#ff5f9e"/><path d="M0 0L512 0L512 512L0 512Z" fill="url(#gr1)"/><path d="M256 92.16L256 104.96" fill="none" stroke="#eaf8ff" stroke-width="3.58" stroke-linecap="round" stroke-linejoin="round"/><path d="M394.24 230.4L381.44 230.4" fill="none" stroke="#eaf8ff" stroke-width="3.58" stroke-linecap="round" stroke-linejoin="round"/><path d="M256 368.64L256 355.84" fill="none" stroke="#eaf8ff" stroke-width="3.58" stroke-linecap="round" stroke-linejoin="round"/><path d="M117.76 230.4L130.56 230.4" fill="none" stroke="#eaf8ff" stroke-width="3.58" stroke-linecap="round" stroke-linejoin="round"/><path d="M59.9 21.5L452.1 21.5A38.4 38.4 0 0 1 490.5 59.9L490.5 452.1A38.4 38.4 0 0 1 452.1 490.5L59.9 490.5A38.4 38.4 0 0 1 21.5 452.1L21.5 59.9A38.4 38.4 0 0 1 59.9 21.5Z" fill="none" stroke="#49e0d0" stroke-width="5.12" stroke-linecap="round" stroke-linejoin="round"/><path d="M56.83 28.67L455.17 28.67A28.16 28.16 0 0 1 483.33 56.83L483.33 455.17A28.16 28.16 0 0 1 455.17 483.33L56.83 483.33A28.16 28.16 0 0 1 28.67 455.17L28.67 56.83A28.16 28.16 0 0 1 56.83 28.67Z" fill="none" stroke="rgba(234,248,255,0.5)" stroke-width="1.54" stroke-linecap="round" stroke-linejoin="round"/></svg>