<svg xmlns="http://www.w3.org/2000/svg" viewBox="0 0 512 512" width="512" height="512"><defs><radialGradient id="gr1" gradientUnits="userSpaceOnUse" cx="256" cy="230.4" r="378.88" fx="256" fy="230.4" fr="112.64"><stop offset="0" stop-color="rgba(5,7,13,0)"/><stop offset="1" stop-color="rgba(3,5,9,0.55)"/></radialGradient></defs><path d="M0 0L512 0L512 512L0 512Z" fill="#05070d"/><path d="M-25.6 -25.6L215.04 512L25.6 512Z" fill="#eaf8ff"/><path d="M537.6 -25.6L296.96 512L486.4 512Z" fill="#eaf8ff"/><path d="M537.6 -25.6L296.96 512L486.4 512Z" fill="none" stroke="#49e0d0" stroke-width="1.6" stroke-linecap="round" stroke-linejoin="round"/><path d="M192 317.44L0 512" fill="none" stroke="#49e0d0" stroke-width="1.6" stroke-linecap="round" stroke-linejoin="round"/><path d="M213.33 317.44L85.33 512" fill="none" stroke="#49e0d0" stroke-width="1.6" stroke-linecap="round" stroke-linejoin="round"/><path d="M234.67 317.44L170.67 512" fill="none" stroke="#49e0d0" stroke-width="1.6" stroke-linecap="round" stroke-linejoin="round"/><path d="M256 317.44L256 512" fill="none" stroke="#49e0d0" stroke-width="1.6" stroke-linecap="round" stroke-linejoin="round"/><path d="M277.33 317.44L341.33 512" fill="none" stroke="#49e0d0" stroke-width="1.6" stroke-linecap="round" stroke-linejoin="round"/><path d="M298.67 317.44L426.67 512" fill="none" stroke="#49e0d0" stroke-width="1.6" stroke-linecap="round" stroke-linejoin="round"/><path d="M320 317.44L512 512" fill="none" stroke="#49e0d0" stroke-width="1.6" stroke-linecap="round" stroke-linejoin="round"/><path d="M0 335.87L512 335.87" fill="none" stroke="#49e0d0" stroke-width="1.6" stroke-linecap="round" stroke-linejoin="round"/><path d="M0 377.32L512 377.32" fill="none" stroke="#49e0d0" stroke-width="1.6" stroke-linecap="round" stroke-linejoin="round"/><path d="M0 436.74L512 436.74" fill="none" stroke="#49e0d0" stroke-width="1.6" stroke-linecap="round" stroke-linejoin="round"/><path d="M0 512L512 512" fill="none" stroke="#49e0d0" stroke-width="1.6" stroke-linecap="round" stroke-linejoin="round"/><path d="M352.85 264.64L438.44 281.48L439.7 276.73L357.06 248.81Z" fill="#ff5f9e"/><path d="M330.8 300.47L398.93 354.74L400.69 352.68L336.67 293.63Z" fill="#ff5f9e"/><path d="M289.62 327.47L329.82 404.88L334.32 402.91L304.62 320.89Z" fill="#ff5f9e"/><path d="M247.85 332.57L247.91 419.67L250.61 419.77L256.86 332.9Z" fill="#ff5f9e"/><path d="M201.07 317.2L165.61 396.9L169.96 399.19L215.56 324.83Z" fill="#ff5f9e"/><path d="M171.04 287.73L102.98 342.08L104.58 344.25L176.4 294.98Z" fill="#ff5f9e"/><path d="M153.88 241.57L69.47 263.54L70.39 268.37L156.96 257.66Z" fill="#ff5f9e"/><path d="M158.2 199.72L73.27 180.39L72.58 183L155.88 208.43Z" fill="#ff5f9e"/><path d="M183.6 157.53L113.79 105.22L110.59 108.95L172.93 169.96Z" fill="#ff5f9e"/><path d="M219.01 134.81L181.17 56.36L178.69 57.45L210.76 138.43Z" fill="#ff5f9e"/><path d="M267.83 128.36L265.2 41.17L260.29 40.99L251.46 127.77Z" fill="#ff5f9e"/><path d="M307.67 141.88L345.41 63.38L343.02 62.12L299.7 137.68Z" fill="#ff5f9e"/><path d="M343.16 176.03L409.68 119.61L406.76 115.66L333.4 162.86Z" fill="#ff5f9e"/><path d="M357.43 215.61L442.33 196.17L441.82 193.52L355.73 206.76Z" fill="#ff5f9e"/><path d="M357.43 215.61L442.33 196.17L441.82 193.52L355.73 206.76Z" fill="none" stroke="#49e0d0" stroke-width="3.4" stroke-linecap="round" stroke-linejoin="round"/><path d="M228.99 134.62L223.58 118.8" fill="none" stroke="#49e0d0" stroke-width="3.4" stroke-linecap="round" stroke-linejoin="round"/><path d="M257.74 130.15L258.09 113.44" fill="none" stroke="#49e0d0" stroke-width="3.4" stroke-linecap="round" stroke-linejoin="round"/><path d="M286.28 135.81L292.33 120.23" fill="none" stroke="#49e0d0" stroke-width="3.4" stroke-linecap="round" stroke-linejoin="round"/><path d="M218.4 176.09L293.6 176.09A43.64 10 0 0 1 314.49 196.98L314.49 238.76A43.64 10 0 0 1 293.6 259.65L218.4 259.65A43.64 10 0 0 1 197.51 238.76L197.51 196.98A43.64 10 0 0 1 218.4 176.09Z" fill="none" stroke="#49e0d0" stroke-width="5.5" stroke-linecap="round" stroke-linejoin="round"/><path d="M226.75 192.8L285.25 192.8A26.18 6 0 0 1 297.78 205.33L297.78 230.4A26.18 6 0 0 1 285.25 242.93L226.75 242.93A26.18 6 0 0 1 214.22 230.4L214.22 205.33A26.18 6 0 0 1 226.75 192.8Z" fill="none" stroke="#49e0d0" stroke-width="2.4" stroke-linecap="round" stroke-linejoin="round"/><path d="M220.49 217.87L245.56 240.84L293.6 182.35" fill="none" stroke="#49e0d0" stroke-width="8.5" stroke-linecap="round" stroke-linejoin="round"/><path d="M219.44 276.36L292.56 276.36A19.64 4.5 0 0 1 301.96 285.76L301.96 285.76A19.64 4.5 0 0 1 292.56 295.16L219.44 295.16A19.64 4.5 0 0 1 210.04 285.76L210.04 285.76A19.64 4.5 0 0 1 219.44 276.36Z" fill="#05070d"/><path d="M219.44 276.36L292.56 276.36A19.64 4.5 0 0 1 301.96 285.76L301.96 285.76A19.64 4.5 0 0 1 292.56 295.16L219.44 295.16A19.64 4.5 0 0 1 210.04 285.76L210.04 285.76A19.64 4.5 0 0 1 219.44 276.36Z" fill="#49e0d0"/><path d="M231.35 285.76A9.6 2.2 0 1 1 231.35 285.76" fill="#49e0d0"/><path d="M231.35 285.76A9.6 2.2 0 1 1 231.35 285.76" fill="#0a1120"/><path d="M247.64 281.58L285.25 281.58A8.73 2 0 0 1 289.42 285.76L289.42 285.76A8.73 2 0 0 1 285.25 289.94L247.64 289.94A8.73 2 0 0 1 243.47 285.76L243.47 285.76A8.73 2 0 0 1 247.64 281.58Z" fill="#0a1120"/><path d="M247.64 281.58L285.25 281.58A8.73 2 0 0 1 289.42 285.76L289.42 285.76A8.73 2 0 0 1 285.25 289.94L247.64 289.94A8.73 2 0 0 1 243.47 285.76L243.47 285.76A8.73 2 0 0 1 247.64 281.58Z" fill="none" stroke="#ff5f9e" stroke-width="3.4" stroke-linecap="round" stroke-linejoin="round"/><path d="M231.46 143.4L226.56 129.03" fill="none" stroke="#ff5f9e" stroke-width="3.4" stroke-linecap="round" stroke-linejoin="round"/><path d="M257.58 139.34L257.89 124.16" fill="none" stroke="#ff5f9e" stroke-width="3.4" stroke-linecap="round" stroke-linejoin="round"/><path d="M283.5 144.48L289 130.33" fill="none" stroke="#ff5f9e" stroke-width="3.4" stroke-linecap="round" stroke-linejoin="round"/><path d="M221.85 181.07L290.15 181.07A36 10 0 0 1 309.13 200.04L309.13 237.99A36 10 0 0 1 290.15 256.96L221.85 256.96A36 10 0 0 1 202.87 237.99L202.87 200.04A36 10 0 0 1 221.85 181.07Z" fill="none" stroke="#ff5f9e" stroke-width="5.5" stroke-linecap="round" stroke-linejoin="round"/><path d="M229.44 196.25L282.56 196.25A21.6 6 0 0 1 293.95 207.63L293.95 230.4A21.6 6 0 0 1 282.56 241.78L229.44 241.78A21.6 6 0 0 1 218.05 230.4L218.05 207.63A21.6 6 0 0 1 229.44 196.25Z" fill="none" stroke="#ff5f9e" stroke-width="2.4" stroke-linecap="round" stroke-linejoin="round"/><path d="M223.74 219.02L246.51 239.89L290.15 186.76" fill="none" stroke="#ff5f9e" stroke-width="8.5" stroke-linecap="round" stroke-linejoin="round"/><path d="M222.79 272.14L289.21 272.14A16.2 4.5 0 0 1 297.74 280.68L297.74 280.68A16.2 4.5 0 0 1 289.21 289.22L222.79 289.22A16.2 4.5 0 0 1 214.26 280.68L214.26 280.68A16.2 4.5 0 0 1 222.79 272.14Z" fill="#05070d"/><path d="M222.79 272.14L289.21 272.14A16.2 4.5 0 0 1 297.74 280.68L297.74 280.68A16.2 4.5 0 0 1 289.21 289.22L222.79 289.22A16.2 4.5 0 0 1 214.26 280.68L214.26 280.68A16.2 4.5 0 0 1 222.79 272.14Z" fill="#ff5f9e"/><path d="M233.61 280.68A7.92 2.2 0 1 1 233.61 280.68" fill="#ff5f9e"/><path d="M233.61 280.68A7.92 2.2 0 1 1 233.61 280.68" fill="#0a1120"/><path d="M248.41 276.89L282.56 276.89A7.2 2 0 0 1 286.36 280.68L286.36 280.68A7.2 2 0 0 1 282.56 284.48L248.41 284.48A7.2 2 0 0 1 244.62 280.68L244.62 280.68A7.2 2 0 0 1 248.41 276.89Z" fill="#0a1120"/><path d="M248.41 276.89L282.56 276.89A7.2 2 0 0 1 286.36 280.68L286.36 280.68A7.2 2 0 0 1 282.56 284.48L248.41 284.48A7.2 2 0 0 1 244.62 280.68L244.62 280.68A7.2 2 0 0 1 248.41 276.89Z" fill="none" stroke="#eaf8ff" stroke-width="3.4" stroke-linecap="round" stroke-linejoin="round"/><path d="M233.49 150.58L228.99 137.4" fill="none" stroke="#eaf8ff" stroke-width="3.4" stroke-linecap="round" stroke-linejoin="round"/><path d="M257.45 146.86L257.74 132.93" fill="none" stroke="#eaf8ff" stroke-width="3.4" stroke-linecap="round" stroke-linejoin="round"/><path d="M281.23 151.57L286.28 138.59" fill="none" stroke="#eaf8ff" stroke-width="3.4" stroke-linecap="round" stroke-linejoin="round"/><path d="M224.67 185.14L287.33 185.14A30.3 10 0 0 1 304.74 202.55L304.74 237.36A30.3 10 0 0 1 287.33 254.77L224.67 254.77A30.3 10 0 0 1 207.26 237.36L207.26 202.55A30.3 10 0 0 1 224.67 185.14Z" fill="none" stroke="#ff5f9e" stroke-width="5.5" stroke-linecap="round" stroke-linejoin="round"/><path d="M231.63 199.07L280.37 199.07A18.18 6 0 0 1 290.82 209.51L290.82 230.4A18.18 6 0 0 1 280.37 240.84L231.63 240.84A18.18 6 0 0 1 221.18 230.4L221.18 209.51A18.18 6 0 0 1 231.63 199.07Z" fill="none" stroke="#ff5f9e" stroke-width="2.4" stroke-linecap="round" stroke-linejoin="round"/><path d="M226.41 219.96L247.3 239.1L287.33 190.36" fill="none" stroke="#49e0d0" stroke-width="8.5" stroke-linecap="round" stroke-linejoin="round"/><path d="M225.54 268.7L286.46 268.7A13.64 4.5 0 0 1 294.3 276.53L294.3 276.53A13.64 4.5 0 0 1 286.46 284.36L225.54 284.36A13.64 4.5 0 0 1 217.7 276.53L217.7 276.53A13.64 4.5 0 0 1 225.54 268.7Z" fill="#05070d"/><path d="M225.54 268.7L286.46 268.7A13.64 4.5 0 0 1 294.3 276.53L294.3 276.53A13.64 4.5 0 0 1 286.46 284.36L225.54 284.36A13.64 4.5 0 0 1 217.7 276.53L217.7 276.53A13.64 4.5 0 0 1 225.54 268.7Z" fill="#eaf8ff"/><path d="M235.46 276.53A6.67 2.2 0 1 1 235.46 276.53" fill="#eaf8ff"/><path d="M235.46 276.53A6.67 2.2 0 1 1 235.46 276.53" fill="#0a1120"/><path d="M249.04 273.05L280.37 273.05A6.06 2 0 0 1 283.85 276.53L283.85 276.53A6.06 2 0 0 1 280.37 280.01L249.04 280.01A6.06 2 0 0 1 245.56 276.53L245.56 276.53A6.06 2 0 0 1 249.04 273.05Z" fill="#0a1120"/><path d="M0 0L512 0L512 512L0 512Z" fill="url(#gr1)"/><path d="M256 92.16L256 104.96" fill="none" stroke="#eaf8ff" stroke-width="3.58" stroke-linecap="round" stroke-linejoin="round"/><path d="M394.24 230.4L381.44 230.4" fill="none" stroke="#eaf8ff" stroke-width="3.58" stroke-linecap="round" stroke-linejoin="round"/><path d="M256 368.64L256 355.84" fill="none" stroke="#eaf8ff" stroke-width="3.58" stroke-linecap="round" stroke-linejoin="round"/><path d="M117.76 230.4L130.56 230.4" fill="none" stroke="#eaf8ff" stroke-width="3.58" stroke-linecap="round" stroke-linejoin="round"/><path d="M59.9 21.5L452.1 21.5A38.4 38.4 0 0 1 490.5 59.9L490.5 452.1A38.4 38.4 0 0 1 452.1 490.5L59.9 490.5A38.4 38.4 0 0 1 21.5 452.1L21.5 59.9A38.4 38.4 0 0 1 59.9 21.5Z" fill="none" stroke="#49e0d0" stroke-width="5.12" stroke-linecap="round" stroke-linejoin="round"/><path d="M56.83 28.67L455.17 28.67A28.16 28.16 0 0 1 483.33 56.83L483.33 455.17A28.16 28.16 0 0 1 455.17 483.33L56.83 483.33A28.16 28.16 0 0 1 28.67 455.17L28.67 56.83A28.16 28.16 0 0 1 56.83 28.67Z" fill="none" stroke="rgba(234,248,255,0.5)" stroke-width="1.54" stroke-linecap="round" stroke-linejoin="round"/></svg>